<svg width="41" height="48" viewBox="0 0 41 48" fill="none" xmlns="http://www.w3.org/2000/svg">
<g clip-path="url(#clip0)">
<path d="M0 15.1199V28.989C0 29.3364 0.0422245 29.6699 0.126674 29.9896C1.25266 40.1204 9.93684 48 20.493 48C31.0491 48 39.7473 40.1204 40.8593 29.9896C40.9437 29.6699 40.9859 29.3364 40.9859 28.989V15.1199H0Z" fill="#F9423E"/>
<path d="M36.7213 0H4.27875C1.92825 0 0 1.90388 0 4.22467V15.1199H41V4.22467C41 1.90388 39.0717 0 36.7213 0Z" fill="white"/>
<path d="M25.8132 26.835C25.3488 28.2108 25.6584 29.7116 26.3481 30.9901C27.1081 32.3798 28.1778 33.6167 28.7267 35.1175C28.8112 35.3399 28.8534 35.59 28.8252 35.8263C28.7126 36.8546 27.6711 37.0075 26.8266 36.9102C23.7724 36.5489 21.253 34.1031 20.1692 31.2542C19.0854 28.4053 19.2684 26.0706 19.6907 22.7215C19.7329 22.4296 19.8033 21.8877 20.0144 21.6653C20.2255 21.4569 20.9856 21.2623 20.9856 22.1517C21.0278 21.6236 21.0278 20.4841 21.4078 20.1783C22.1115 19.6225 22.5619 20.4424 22.576 20.9983C22.6464 19.9282 23.1249 19.6641 23.5894 19.7614C24.0539 19.8587 24.1946 20.6508 24.1102 21.1511C24.1524 20.5674 24.9969 20.3729 25.208 21.2484C25.2502 21.4152 25.2221 21.9293 25.208 22.0822L24.8561 25.7371C24.9969 25.2785 25.1236 24.9589 25.6303 24.5142C25.8414 24.3335 26.1369 24.2223 26.334 24.2501C26.6718 24.2779 26.897 24.6115 26.7422 24.9033C26.4747 25.4175 25.9399 26.4597 25.8132 26.835Z" fill="#FFC033"/>
<path d="M24.1102 21.1511C24.0398 21.4291 23.9976 21.707 23.9413 21.971C23.8991 22.249 23.8428 22.5269 23.8146 22.791C23.7443 23.3468 23.702 23.9027 23.6598 24.4586C23.6317 24.1807 23.6035 23.9027 23.6035 23.6109C23.6035 23.3329 23.6317 23.0411 23.6598 22.7632C23.702 22.4852 23.7443 22.2073 23.8146 21.9294C23.8991 21.6792 23.9976 21.4152 24.1102 21.1511Z" fill="#F9423E"/>
<path d="M24.8703 25.5981C24.7577 25.7371 24.6733 25.8761 24.5888 26.0151C24.5185 26.1679 24.4481 26.3208 24.4059 26.4737C24.3636 26.6265 24.3355 26.7933 24.3214 26.96C24.3073 27.0434 24.3073 27.1268 24.3073 27.2102C24.3073 27.2936 24.3073 27.377 24.3073 27.4603C24.2792 27.377 24.2651 27.2936 24.251 27.2102C24.237 27.1268 24.2229 27.0434 24.2229 26.9461C24.2088 26.7655 24.237 26.5987 24.2792 26.432C24.3214 26.2652 24.4059 26.0984 24.5044 25.9595C24.5888 25.8205 24.7155 25.6954 24.8703 25.5981Z" fill="#F9423E"/>
<path d="M22.5902 20.9983L22.5057 21.7487C22.4776 21.9988 22.4494 22.249 22.4213 22.4852L22.3509 23.2218C22.3227 23.4719 22.3087 23.7221 22.2805 23.9722C22.2524 23.7221 22.2383 23.4719 22.2383 23.2218C22.2383 22.9716 22.2524 22.7215 22.2805 22.4713C22.3368 21.971 22.4213 21.4708 22.5902 20.9983Z" fill="#F9423E"/>
<path d="M21.0278 21.9988C20.9997 22.2073 20.9997 22.4157 20.9856 22.6103L20.9434 23.2218L20.9152 23.8332C20.9012 24.0417 20.8871 24.2501 20.873 24.4586C20.8449 24.2501 20.8167 24.0417 20.8167 23.8332C20.8026 23.6248 20.8026 23.4163 20.8167 23.2079C20.8308 22.9994 20.8449 22.791 20.8871 22.5825C20.9012 22.4019 20.9434 22.2073 21.0278 21.9988Z" fill="#F9423E"/>
<path d="M16.1579 26.835C16.6224 28.2108 16.3127 29.7116 15.6231 30.9901C14.863 32.3798 13.7933 33.6167 13.2444 35.1175C13.16 35.3399 13.1177 35.59 13.1459 35.8263C13.2585 36.8546 14.3 37.0075 15.1445 36.9102C18.1988 36.5489 20.7182 34.1031 21.8019 31.2542C22.8857 28.4053 22.7027 26.0706 22.2805 22.7215C22.2382 22.4296 22.1679 21.8877 21.9567 21.6653C21.7456 21.4569 20.9856 21.2623 20.9856 22.1517C20.9434 21.6236 20.9434 20.4841 20.5633 20.1783C19.8596 19.6225 19.4092 20.4424 19.3951 20.9983C19.3247 19.9282 18.8462 19.6641 18.3817 19.7614C17.9173 19.8587 17.7765 20.6508 17.861 21.1511C17.8187 20.5674 16.9742 20.3729 16.7631 21.2484C16.7209 21.4152 16.749 21.9293 16.7631 22.0822L17.115 25.7371C16.9742 25.2785 16.8476 24.9589 16.3409 24.5142C16.1298 24.3335 15.8342 24.2223 15.6371 24.2501C15.2993 24.2779 15.0741 24.6115 15.229 24.9033C15.4964 25.4175 16.0312 26.4597 16.1579 26.835Z" fill="#F56264"/>
<path d="M17.8469 21.0677C17.9877 21.3179 18.0862 21.5958 18.1706 21.8738C18.2551 22.1517 18.3114 22.4435 18.3395 22.7354C18.3677 23.0272 18.3958 23.319 18.3818 23.6109C18.3818 23.7499 18.3677 23.9027 18.3536 24.0417C18.3395 24.1807 18.3114 24.3335 18.2973 24.4725C18.2973 24.1807 18.2832 23.8888 18.2692 23.6109L18.2551 23.4024L18.241 23.194C18.2269 23.055 18.2129 22.9021 18.1988 22.7632C18.1706 22.4852 18.1143 22.1934 18.058 21.9155C18.0158 21.6236 17.9454 21.3457 17.8469 21.0677Z" fill="#F9423E"/>
<path d="M17.1008 25.5981C17.2134 25.7371 17.2838 25.9039 17.326 26.0706C17.3823 26.2374 17.4105 26.4181 17.4246 26.5848C17.4386 26.7655 17.4386 26.9323 17.4246 27.1129C17.4105 27.2936 17.3683 27.4603 17.326 27.6271C17.326 27.4464 17.326 27.2797 17.326 27.1129C17.326 26.9461 17.312 26.7794 17.2979 26.5987C17.2697 26.2652 17.2134 25.9317 17.1008 25.5981Z" fill="#F9423E"/>
<path d="M19.395 20.8454C19.5076 21.0816 19.578 21.3457 19.6484 21.6097C19.7047 21.8738 19.7469 22.1378 19.761 22.4019C19.775 22.6659 19.7891 22.9299 19.775 23.194C19.775 23.3329 19.761 23.458 19.7469 23.597C19.7328 23.7221 19.7187 23.861 19.6906 23.9861L19.6624 23.194C19.6484 22.9299 19.6343 22.6659 19.6202 22.4158C19.5921 22.1517 19.5639 21.9016 19.5358 21.6375C19.5076 21.3596 19.4654 21.0955 19.395 20.8454Z" fill="#F9423E"/>
<path d="M20.9575 21.9155C21.1123 22.3185 21.1827 22.7493 21.2109 23.1801C21.2249 23.4024 21.2249 23.6109 21.2109 23.8332C21.1968 24.0556 21.1686 24.264 21.1264 24.4725L21.0983 23.8332C21.0983 23.6248 21.0842 23.4024 21.0701 23.194C21.056 22.9855 21.042 22.7632 21.0279 22.5547C20.9997 22.3463 20.9857 22.1239 20.9575 21.9155Z" fill="#F9423E"/>
<path d="M15.1023 17.4963C15.3979 17.8993 15.7075 18.3023 16.0031 18.6914C16.0594 18.7748 16.1579 18.8165 16.2564 18.7609C16.3409 18.7192 16.3831 18.5941 16.3268 18.5107C16.0312 18.1077 15.7216 17.7047 15.426 17.3156C15.3697 17.2322 15.2712 17.1905 15.1727 17.2461C15.0882 17.3017 15.046 17.4268 15.1023 17.4963Z" fill="#444647"/>
<path d="M12.5547 21.7209L14.1593 22.9021C14.2437 22.9577 14.3704 22.916 14.4126 22.8327C14.4689 22.7354 14.4267 22.6381 14.3423 22.5825L12.7377 21.4013C12.6533 21.3457 12.5266 21.3874 12.4844 21.4708C12.4281 21.568 12.4703 21.6653 12.5547 21.7209Z" fill="#444647"/>
<path d="M10.4857 26.8767L12.428 26.7099C12.5266 26.696 12.611 26.6265 12.611 26.5292C12.611 26.432 12.5266 26.3347 12.428 26.3486L10.4857 26.5153C10.3872 26.5292 10.3027 26.5987 10.3027 26.696C10.3027 26.7933 10.3872 26.8906 10.4857 26.8767Z" fill="#444647"/>
<path d="M11.5414 32.0046L13.2445 30.7261C13.3289 30.6705 13.3712 30.5733 13.3149 30.476C13.2726 30.3926 13.146 30.3509 13.0615 30.4065C12.4985 30.8373 11.9215 31.2681 11.3585 31.685C11.274 31.7406 11.2318 31.8379 11.2881 31.9352C11.3444 32.0185 11.4711 32.0741 11.5414 32.0046Z" fill="#444647"/>
<path d="M26.2213 17.1627C25.9258 17.5657 25.6161 17.9687 25.3206 18.3578C25.2643 18.4412 25.3065 18.5663 25.3909 18.608C25.4895 18.6636 25.588 18.6219 25.6443 18.5385C25.9399 18.1355 26.2495 17.7325 26.5451 17.3434C26.6014 17.26 26.5591 17.1349 26.4747 17.0932C26.3902 17.0376 26.2917 17.0793 26.2213 17.1627Z" fill="#444647"/>
<path d="M28.9098 21.2484C28.3749 21.6375 27.8401 22.0405 27.3052 22.4296C27.2208 22.4852 27.1786 22.5825 27.2349 22.6798C27.2771 22.7632 27.4038 22.8049 27.4882 22.7493C28.0231 22.3602 28.5579 21.9571 29.0927 21.568C29.1772 21.5124 29.2194 21.4152 29.1631 21.3179C29.1209 21.2484 28.9942 21.1928 28.9098 21.2484Z" fill="#444647"/>
<path d="M31.1758 26.3625C30.5284 26.3069 29.881 26.2513 29.2335 26.1957C29.135 26.1818 29.0505 26.2791 29.0505 26.3764C29.0505 26.4875 29.135 26.557 29.2335 26.557C29.881 26.6126 30.5284 26.6682 31.1758 26.7238C31.2744 26.7377 31.3588 26.6404 31.3588 26.5431C31.3588 26.432 31.2744 26.3625 31.1758 26.3625Z" fill="#444647"/>
<path d="M30.2892 31.5321C29.7262 31.1013 29.1491 30.6705 28.5861 30.2536C28.5017 30.198 28.375 30.2397 28.3328 30.3231C28.2765 30.4204 28.3187 30.5177 28.4031 30.5733C28.9661 31.0041 29.5432 31.4349 30.1062 31.8518C30.1906 31.9074 30.3173 31.8657 30.3595 31.7823C30.4158 31.6989 30.3736 31.6016 30.2892 31.5321Z" fill="#444647"/>
<path d="M6.09448 2.2374H6.39005V4.15517H7.54419V4.39142H6.09448V2.2374Z" fill="#444647"/>
<path d="M9.09237 3.90503C9.022 4.25246 8.76865 4.43312 8.41678 4.43312C7.91009 4.43312 7.67081 4.08569 7.65674 3.6132C7.65674 3.1407 7.96638 2.80717 8.4027 2.80717C8.9657 2.80717 9.1346 3.32136 9.12052 3.69658H7.93824C7.92416 3.97452 8.07898 4.21076 8.43085 4.21076C8.64198 4.21076 8.7968 4.11349 8.83902 3.90503H9.09237ZM8.8531 3.46033C8.83902 3.21019 8.65605 3.01563 8.4027 3.01563C8.13528 3.01563 7.96638 3.22408 7.95231 3.46033H8.8531Z" fill="#444647"/>
<path d="M10.4577 3.33526C10.4155 3.14071 10.2747 3.02953 10.0636 3.02953C9.68357 3.02953 9.57097 3.32137 9.57097 3.64099C9.57097 3.93283 9.69765 4.21077 10.0354 4.21077C10.2888 4.21077 10.4295 4.0718 10.4718 3.83555H10.7392C10.6829 4.21077 10.4436 4.44702 10.0495 4.44702C9.57097 4.44702 9.31763 4.11349 9.31763 3.65489C9.31763 3.1824 9.5569 2.82108 10.0636 2.82108C10.4155 2.82108 10.711 2.98784 10.7392 3.36306H10.4577V3.33526Z" fill="#444647"/>
<path d="M12.1044 3.33526C12.0622 3.14071 11.9214 3.02953 11.7103 3.02953C11.3303 3.02953 11.2177 3.32137 11.2177 3.64099C11.2177 3.93283 11.3444 4.21077 11.6822 4.21077C11.9355 4.21077 12.0763 4.0718 12.1185 3.83555H12.3859C12.3296 4.21077 12.0903 4.44702 11.6962 4.44702C11.2177 4.44702 10.9644 4.11349 10.9644 3.65489C10.9644 3.1824 11.2036 2.82108 11.7103 2.82108C12.0622 2.82108 12.3578 2.98784 12.3859 3.36306H12.1044V3.33526Z" fill="#444647"/>
<path d="M12.9347 2.55703H12.6814V2.2374H12.9347V2.55703ZM12.6814 2.83496H12.9347V4.39142H12.6814V2.83496Z" fill="#444647"/>
<path d="M14.0186 2.80717C14.5253 2.80717 14.7786 3.16849 14.7786 3.62709C14.7786 4.08569 14.5112 4.43312 14.0186 4.43312C13.5119 4.43312 13.2585 4.0718 13.2585 3.62709C13.2585 3.1546 13.526 2.80717 14.0186 2.80717ZM14.0186 4.21076C14.286 4.21076 14.5112 4.00231 14.5112 3.62709C14.5112 3.25188 14.286 3.04342 14.0186 3.04342C13.7512 3.04342 13.526 3.25188 13.526 3.62709C13.526 3.98841 13.7512 4.21076 14.0186 4.21076Z" fill="#444647"/>
<path d="M15.0881 2.83497H15.3274V3.08511C15.44 2.89056 15.6089 2.80717 15.8341 2.80717C16.2423 2.80717 16.383 3.04342 16.383 3.37695V4.40532H16.1297V3.33526C16.1297 3.1407 16.003 3.01563 15.806 3.01563C15.4963 3.01563 15.3415 3.22408 15.3415 3.50202V4.37753H15.0881V2.83497V2.83497Z" fill="#444647"/>
<path d="M18.1285 3.90503C18.0581 4.25246 17.8048 4.43312 17.4529 4.43312C16.9462 4.43312 16.7069 4.08569 16.6929 3.6132C16.6929 3.1407 17.0025 2.80717 17.4388 2.80717C18.0018 2.80717 18.1707 3.32136 18.1567 3.69658H16.9744C16.9603 3.97452 17.1151 4.21076 17.467 4.21076C17.6781 4.21076 17.8329 4.11349 17.8752 3.90503H18.1285ZM17.8892 3.46033C17.8752 3.21019 17.6922 3.01563 17.4388 3.01563C17.1714 3.01563 17.0025 3.22408 16.9884 3.46033H17.8892Z" fill="#444647"/>
<path d="M18.5788 3.90504C18.5929 4.12739 18.7899 4.21078 19.001 4.21078C19.1559 4.21078 19.3811 4.16909 19.3811 3.97453C19.3811 3.77997 19.1277 3.73828 18.8603 3.68269C18.6069 3.6271 18.3395 3.54372 18.3395 3.23799C18.3395 2.91836 18.6492 2.79329 18.9307 2.79329C19.2825 2.79329 19.55 2.90446 19.5781 3.27968H19.3248C19.3107 3.08512 19.1277 3.01564 18.9588 3.01564C18.804 3.01564 18.621 3.05733 18.621 3.2102C18.621 3.39086 18.9025 3.41865 19.1418 3.48814C19.3951 3.54372 19.6625 3.6271 19.6625 3.93284C19.6625 4.30805 19.3107 4.41923 18.987 4.41923C18.6351 4.41923 18.3395 4.28026 18.3254 3.89115H18.5788V3.90504Z" fill="#444647"/>
<path d="M22.2102 4.98899H21.9569V4.18297C21.8724 4.34973 21.6754 4.43312 21.4502 4.43312C20.9716 4.43312 20.7183 4.0579 20.7183 3.6132C20.7183 3.16849 20.9575 2.80717 21.4361 2.80717C21.5909 2.80717 21.8302 2.86276 21.9428 3.05732V2.84887H22.1961V4.98899H22.2102ZM21.4783 4.21076C21.8302 4.21076 21.9569 3.91893 21.9569 3.62709C21.9569 3.32136 21.8161 3.04342 21.4642 3.04342C21.1124 3.04342 20.9857 3.33526 20.9857 3.64099C20.9857 3.91893 21.1405 4.21076 21.4783 4.21076Z" fill="#444647"/>
<path d="M23.913 4.39143H23.6738V4.14128C23.5612 4.33584 23.3923 4.41922 23.1671 4.41922C22.7589 4.41922 22.6182 4.18298 22.6182 3.84945V2.82108H22.8715V3.89114C22.8715 4.0857 22.9982 4.21077 23.1952 4.21077C23.5049 4.21077 23.6597 4.00232 23.6597 3.72438V2.84887H23.913V4.39143V4.39143Z" fill="#444647"/>
<path d="M25.6444 3.90503C25.574 4.25246 25.3206 4.43312 24.9688 4.43312C24.4621 4.43312 24.2228 4.08569 24.2087 3.6132C24.2087 3.1407 24.5184 2.80717 24.9547 2.80717C25.5177 2.80717 25.6866 3.32136 25.6725 3.69658H24.4902C24.4762 3.97452 24.631 4.21076 24.9829 4.21076C25.194 4.21076 25.3488 4.11349 25.391 3.90503H25.6444ZM25.391 3.46033C25.3769 3.21019 25.194 3.01563 24.9406 3.01563C24.6732 3.01563 24.5043 3.22408 24.4902 3.46033H25.391Z" fill="#444647"/>
<path d="M26.9391 3.90504C26.9532 4.12739 27.1503 4.21078 27.3614 4.21078C27.5162 4.21078 27.7414 4.16909 27.7414 3.97453C27.7414 3.77997 27.4881 3.73828 27.2206 3.68269C26.9673 3.6271 26.6999 3.54372 26.6999 3.23799C26.6999 2.91836 27.0095 2.79329 27.291 2.79329C27.6429 2.79329 27.9103 2.90446 27.9385 3.27968H27.6851C27.671 3.08512 27.4881 3.01564 27.3192 3.01564C27.1643 3.01564 26.9814 3.05733 26.9814 3.2102C26.9814 3.39086 27.2629 3.41865 27.5021 3.48814C27.7555 3.54372 28.0229 3.6271 28.0229 3.93284C28.0229 4.30805 27.671 4.41923 27.3473 4.41923C26.9954 4.41923 26.6999 4.28026 26.6858 3.89115H26.9391V3.90504Z" fill="#444647"/>
<path d="M29.712 4.39143C29.6698 4.41922 29.6135 4.43312 29.529 4.43312C29.3883 4.43312 29.3038 4.36363 29.3038 4.19687C29.1631 4.36363 28.966 4.43312 28.7549 4.43312C28.4734 4.43312 28.2341 4.30805 28.2341 4.00231C28.2341 3.65489 28.5016 3.57151 28.769 3.52982C29.0505 3.47423 29.3038 3.48813 29.3038 3.30747C29.3038 3.08512 29.1208 3.04343 28.9519 3.04343C28.7267 3.04343 28.5719 3.11291 28.5579 3.33526H28.2904C28.3045 2.94615 28.6142 2.82108 28.9519 2.82108C29.2334 2.82108 29.5431 2.89056 29.5431 3.25188V4.03011C29.5431 4.15518 29.5431 4.21077 29.6275 4.21077C29.6557 4.21077 29.6698 4.21077 29.712 4.19687V4.39143V4.39143ZM29.2897 3.58541C29.1912 3.65489 28.9942 3.65489 28.8253 3.69658C28.6564 3.72438 28.5016 3.77996 28.5016 3.97452C28.5016 4.14128 28.6423 4.19687 28.8112 4.19687C29.149 4.19687 29.2897 3.98842 29.2897 3.84945V3.58541V3.58541Z" fill="#444647"/>
<path d="M30.2187 2.2374H29.9653V4.39142H30.2187V2.2374Z" fill="#444647"/>
<path d="M31.3305 4.39143H31.0631L30.4719 2.83498H30.7675L31.2038 4.14129L31.6401 2.83498H31.9076L31.3305 4.39143Z" fill="#444647"/>
<path d="M33.5404 4.39143C33.4981 4.41922 33.4418 4.43312 33.3574 4.43312C33.2166 4.43312 33.1322 4.36363 33.1322 4.19687C32.9914 4.36363 32.7944 4.43312 32.5833 4.43312C32.3018 4.43312 32.0625 4.30805 32.0625 4.00231C32.0625 3.65489 32.3299 3.57151 32.5973 3.52982C32.8788 3.47423 33.1322 3.48813 33.1322 3.30747C33.1322 3.08512 32.9492 3.04343 32.7803 3.04343C32.5551 3.04343 32.4003 3.11291 32.3862 3.33526H32.1329C32.1469 2.94615 32.4566 2.82108 32.7944 2.82108C33.0759 2.82108 33.3855 2.89056 33.3855 3.25188V4.03011C33.3855 4.15518 33.3855 4.21077 33.47 4.21077C33.4981 4.21077 33.5122 4.21077 33.5544 4.19687V4.39143H33.5404ZM33.1181 3.58541C33.0196 3.65489 32.8225 3.65489 32.6536 3.69658C32.4847 3.72438 32.3299 3.77996 32.3299 3.97452C32.3299 4.14128 32.4707 4.19687 32.6396 4.19687C32.9774 4.19687 33.1181 3.98842 33.1181 3.84945V3.58541V3.58541Z" fill="#444647"/>
<path d="M33.7795 2.83497H34.0188V3.08511C34.1314 2.89056 34.3003 2.80717 34.5255 2.80717C34.9337 2.80717 35.0744 3.04342 35.0744 3.37695V4.40532H34.8211V3.33526C34.8211 3.1407 34.6944 3.01563 34.4974 3.01563C34.1877 3.01563 34.0329 3.22408 34.0329 3.50202V4.37753H33.7795V2.83497Z" fill="#444647"/>
<path d="M9.34575 6.22582C9.28945 6.08685 9.35982 5.96178 9.52872 5.96178H10.5984C10.6969 5.96178 10.7532 6.01736 10.7814 6.07295L12.78 10.5061H12.8504L14.849 6.07295C14.8631 6.01736 14.9335 5.96178 15.032 5.96178H16.1017C16.2565 5.96178 16.3409 6.10075 16.2846 6.22582L13.0474 13.1604C13.0193 13.216 12.963 13.2716 12.8645 13.2716H12.7659C12.6674 13.2716 12.6252 13.216 12.583 13.1604L9.34575 6.22582Z" fill="#FFC033"/>
<path d="M16.8616 7.37927C16.8616 7.30978 16.9179 7.2542 16.9882 7.2542H17.6357C17.7061 7.2542 17.7624 7.30978 17.7624 7.37927V11.9097C17.7624 11.9792 17.7061 12.0347 17.6357 12.0347H16.9882C16.9179 12.0347 16.8616 11.9792 16.8616 11.9097V7.37927Z" fill="#F9423E"/>
<path d="M19.0293 7.37927C19.0293 7.30978 19.0856 7.2542 19.156 7.2542H20.8027C22.1398 7.2542 23.2377 8.32426 23.2377 9.64447C23.2377 10.9786 22.1398 12.0486 20.8027 12.0486H19.156C19.0856 12.0486 19.0293 11.993 19.0293 11.9236V7.37927ZM20.7183 11.2148C21.6191 11.2148 22.2806 10.5478 22.2806 9.64447C22.2806 8.75506 21.6191 8.08801 20.7183 8.08801H19.9301V11.2148H20.7183Z" fill="#F9423E"/>
<path d="M23.4769 11.868L25.6304 7.26809C25.6444 7.2264 25.6867 7.19861 25.743 7.19861H25.8133C25.8837 7.19861 25.9119 7.2264 25.9259 7.26809L28.0653 11.868C28.1075 11.9514 28.0512 12.0486 27.9527 12.0486H27.3475C27.249 12.0486 27.1927 12.0069 27.1504 11.9097L26.8126 11.1731H24.7436L24.4058 11.9097C24.3777 11.9792 24.3214 12.0486 24.2088 12.0486H23.6036C23.491 12.0486 23.4347 11.9514 23.4769 11.868ZM26.4749 10.4088L25.7852 8.90793H25.757L25.0814 10.4088H26.4749Z" fill="#F9423E"/>
<path d="M28.417 11.3677L28.6703 10.9369C28.7266 10.8396 28.8392 10.8396 28.9096 10.8952C28.9378 10.9091 29.5007 11.326 29.9511 11.326C30.3171 11.326 30.5845 11.0897 30.5845 10.7979C30.5845 10.4505 30.2889 10.2142 29.6978 9.97799C29.0504 9.71395 28.3888 9.31094 28.3888 8.50492C28.3888 7.89345 28.8392 7.18471 29.9511 7.18471C30.6549 7.18471 31.2038 7.54603 31.3445 7.64331C31.4149 7.685 31.429 7.79617 31.3868 7.86566L31.1194 8.25477C31.0631 8.33815 30.9645 8.39374 30.8801 8.33815C30.8238 8.31036 30.303 7.96294 29.923 7.96294C29.5289 7.96294 29.3178 8.22698 29.3178 8.43543C29.3178 8.75506 29.5711 8.97741 30.1341 9.19976C30.8097 9.4638 31.5838 9.86682 31.5838 10.7423C31.5838 11.4511 30.9645 12.1042 29.9934 12.1042C29.1207 12.1042 28.6 11.7012 28.4733 11.5761C28.3888 11.5206 28.3607 11.4789 28.417 11.3677Z" fill="#F9423E"/>
</g>
<defs>
<clipPath id="clip0">
<rect width="41" height="48" fill="white"/>
</clipPath>
</defs>
</svg>
