<svg width="41" height="48" viewBox="0 0 41 48" fill="none" xmlns="http://www.w3.org/2000/svg">
<g clip-path="url(#clip0)">
<path d="M0 15.1199V28.989C0 29.3364 0.0422245 29.67 0.126674 29.9896C1.25266 40.1205 9.93684 48 20.493 48C31.0491 48 39.7473 40.1205 40.8593 29.9896C40.9437 29.67 40.9859 29.3364 40.9859 28.989V15.1199H0Z" fill="#F9423E"/>
<path d="M36.7213 0H4.27875C1.92825 0 0 1.90388 0 4.22467V15.1199H41V4.22467C41 1.90388 39.0717 0 36.7213 0Z" fill="white"/>
<path d="M25.8133 26.835C25.3488 28.2108 25.6584 29.7117 26.3481 30.9902C27.1081 32.3799 28.1778 33.6167 28.7267 35.1176C28.8112 35.3399 28.8534 35.5901 28.8253 35.8263C28.7127 36.8547 27.6711 37.0076 26.8266 36.9103C23.7724 36.549 21.253 34.1031 20.1692 31.2542C19.0855 28.4054 19.2685 26.0707 19.6907 22.7215C19.7329 22.4297 19.8033 21.8877 20.0144 21.6654C20.2255 21.4569 20.9856 21.2623 20.9856 22.1517C21.0278 21.6237 21.0278 20.4841 21.4078 20.1784C22.1116 19.6225 22.562 20.4424 22.576 20.9983C22.6464 19.9282 23.125 19.6642 23.5894 19.7615C24.0539 19.8588 24.1946 20.6509 24.1102 21.1512C24.1524 20.5675 24.9969 20.3729 25.208 21.2484C25.2503 21.4152 25.2221 21.9294 25.208 22.0823L24.8562 25.7372C24.9969 25.2786 25.1236 24.9589 25.6303 24.5142C25.8414 24.3336 26.137 24.2224 26.334 24.2502C26.6718 24.278 26.897 24.6115 26.7422 24.9033C26.4748 25.4175 25.9399 26.4598 25.8133 26.835Z" fill="#FFC033"/>
<path d="M24.1102 21.1511C24.0398 21.4291 23.9976 21.707 23.9413 21.971C23.8991 22.249 23.8428 22.5269 23.8146 22.791C23.7442 23.3468 23.702 23.9027 23.6598 24.4586C23.6316 24.1807 23.6035 23.9027 23.6035 23.6109C23.6035 23.3329 23.6316 23.0411 23.6598 22.7632C23.702 22.4852 23.7442 22.2073 23.8146 21.9294C23.8991 21.6792 23.9976 21.4152 24.1102 21.1511Z" fill="#F9423E"/>
<path d="M24.8703 25.5981C24.7577 25.7371 24.6732 25.8761 24.5888 26.0151C24.5184 26.1679 24.448 26.3208 24.4058 26.4737C24.3636 26.6265 24.3354 26.7933 24.3213 26.96C24.3073 27.0434 24.3073 27.1268 24.3073 27.2102C24.3073 27.2936 24.3073 27.377 24.3073 27.4603C24.2791 27.377 24.265 27.2936 24.251 27.2102C24.2369 27.1268 24.2228 27.0434 24.2228 26.9461C24.2087 26.7655 24.2369 26.5987 24.2791 26.432C24.3213 26.2652 24.4058 26.0984 24.5043 25.9595C24.5888 25.8205 24.7154 25.6954 24.8703 25.5981Z" fill="#F9423E"/>
<path d="M22.5901 20.9983L22.5057 21.7487C22.4775 21.9989 22.4494 22.249 22.4212 22.4853L22.3509 23.2218C22.3227 23.4719 22.3086 23.7221 22.2805 23.9722C22.2523 23.7221 22.2383 23.4719 22.2383 23.2218C22.2383 22.9717 22.2523 22.7215 22.2805 22.4714C22.3368 21.9711 22.4212 21.4708 22.5901 20.9983Z" fill="#F9423E"/>
<path d="M21.0278 21.9988C20.9996 22.2072 20.9996 22.4157 20.9856 22.6102L20.9433 23.2217L20.9152 23.8332C20.9011 24.0416 20.8871 24.2501 20.873 24.4585C20.8448 24.2501 20.8167 24.0416 20.8167 23.8332C20.8026 23.6247 20.8026 23.4163 20.8167 23.2078C20.8308 22.9994 20.8448 22.7909 20.8871 22.5824C20.9011 22.4018 20.9433 22.2072 21.0278 21.9988Z" fill="#F9423E"/>
<path d="M16.1579 26.835C16.6224 28.2108 16.3127 29.7117 15.6231 30.9902C14.863 32.3799 13.7933 33.6167 13.2444 35.1176C13.16 35.3399 13.1177 35.5901 13.1459 35.8263C13.2585 36.8547 14.3 37.0076 15.1445 36.9103C18.1988 36.549 20.7182 34.1031 21.8019 31.2542C22.8857 28.4054 22.7027 26.0707 22.2805 22.7215C22.2382 22.4297 22.1679 21.8877 21.9567 21.6654C21.7456 21.4569 20.9856 21.2623 20.9856 22.1517C20.9434 21.6237 20.9434 20.4841 20.5633 20.1784C19.8596 19.6225 19.4092 20.4424 19.3951 20.9983C19.3247 19.9282 18.8462 19.6642 18.3817 19.7615C17.9173 19.8588 17.7765 20.6509 17.861 21.1512C17.8187 20.5675 16.9742 20.3729 16.7631 21.2484C16.7209 21.4152 16.749 21.9294 16.7631 22.0823L17.115 25.7372C16.9742 25.2786 16.8476 24.9589 16.3409 24.5142C16.1298 24.3336 15.8342 24.2224 15.6371 24.2502C15.2993 24.278 15.0741 24.6115 15.229 24.9033C15.4964 25.4175 16.0312 26.4598 16.1579 26.835Z" fill="#F56264"/>
<path d="M17.8469 21.0677C17.9876 21.3179 18.0862 21.5958 18.1706 21.8738C18.2551 22.1517 18.3114 22.4435 18.3395 22.7354C18.3677 23.0272 18.3958 23.319 18.3817 23.6109C18.3817 23.7499 18.3677 23.9027 18.3536 24.0417C18.3395 24.1807 18.3114 24.3335 18.2973 24.4725C18.2973 24.1807 18.2832 23.8888 18.2691 23.6109L18.2551 23.4024L18.241 23.194C18.2269 23.055 18.2128 22.9021 18.1988 22.7632C18.1706 22.4852 18.1143 22.1934 18.058 21.9155C18.0158 21.6236 17.9454 21.3457 17.8469 21.0677Z" fill="#F9423E"/>
<path d="M17.1009 25.5981C17.2135 25.7371 17.2839 25.9039 17.3261 26.0706C17.3824 26.2374 17.4106 26.4181 17.4246 26.5848C17.4387 26.7655 17.4387 26.9323 17.4246 27.1129C17.4106 27.2936 17.3683 27.4603 17.3261 27.6271C17.3261 27.4464 17.3261 27.2797 17.3261 27.1129C17.3261 26.9461 17.312 26.7794 17.298 26.5987C17.2698 26.2652 17.2135 25.9317 17.1009 25.5981Z" fill="#F9423E"/>
<path d="M19.3951 20.8453C19.5077 21.0816 19.5781 21.3456 19.6485 21.6097C19.7048 21.8737 19.747 22.1378 19.7611 22.4018C19.7752 22.6658 19.7892 22.9299 19.7752 23.1939C19.7752 23.3329 19.7611 23.458 19.747 23.5969C19.7329 23.722 19.7189 23.861 19.6907 23.986L19.6626 23.1939C19.6485 22.9299 19.6344 22.6658 19.6203 22.4157C19.5922 22.1516 19.564 21.9015 19.5359 21.6375C19.5077 21.3595 19.4655 21.0955 19.3951 20.8453Z" fill="#F9423E"/>
<path d="M20.9574 21.9155C21.1122 22.3185 21.1826 22.7493 21.2108 23.1801C21.2248 23.4025 21.2248 23.611 21.2108 23.8333C21.1967 24.0557 21.1685 24.2641 21.1263 24.4726L21.0982 23.8333C21.0982 23.6248 21.0841 23.4025 21.07 23.194C21.056 22.9856 21.0419 22.7632 21.0278 22.5548C20.9997 22.3463 20.9856 22.124 20.9574 21.9155Z" fill="#F9423E"/>
<path d="M15.1023 17.4963C15.3979 17.8993 15.7075 18.3023 16.0031 18.6914C16.0594 18.7748 16.1579 18.8165 16.2564 18.7609C16.3409 18.7192 16.3831 18.5941 16.3268 18.5108C16.0312 18.1077 15.7216 17.7047 15.426 17.3156C15.3697 17.2322 15.2712 17.1905 15.1727 17.2461C15.0882 17.3017 15.046 17.4268 15.1023 17.4963Z" fill="#444647"/>
<path d="M12.5547 21.7209L14.1593 22.9022C14.2437 22.9577 14.3704 22.9161 14.4126 22.8327C14.4689 22.7354 14.4267 22.6381 14.3423 22.5825L12.7377 21.4013C12.6533 21.3457 12.5266 21.3874 12.4844 21.4708C12.4281 21.5681 12.4703 21.6653 12.5547 21.7209Z" fill="#444647"/>
<path d="M10.4857 26.8767L12.4281 26.7099C12.5266 26.696 12.611 26.6266 12.611 26.5293C12.611 26.432 12.5266 26.3347 12.4281 26.3486L10.4857 26.5154C10.3872 26.5293 10.3028 26.5988 10.3028 26.696C10.3028 26.7933 10.3872 26.8906 10.4857 26.8767Z" fill="#444647"/>
<path d="M11.5414 32.0047L13.2444 30.7262C13.3289 30.6706 13.3711 30.5733 13.3148 30.476C13.2726 30.3926 13.1459 30.3509 13.0615 30.4065C12.4985 30.8373 11.9214 31.2681 11.3584 31.6851C11.274 31.7406 11.2317 31.8379 11.288 31.9352C11.3443 32.0186 11.471 32.0742 11.5414 32.0047Z" fill="#444647"/>
<path d="M26.2214 17.1627C25.9259 17.5657 25.6162 17.9687 25.3206 18.3578C25.2643 18.4412 25.3066 18.5663 25.391 18.6079C25.4895 18.6635 25.5881 18.6218 25.6444 18.5385C25.9399 18.1354 26.2496 17.7324 26.5452 17.3433C26.6015 17.2599 26.5592 17.1349 26.4748 17.0932C26.3903 17.0376 26.2918 17.0793 26.2214 17.1627Z" fill="#444647"/>
<path d="M28.9097 21.2484C28.3749 21.6375 27.84 22.0405 27.3052 22.4296C27.2207 22.4852 27.1785 22.5825 27.2348 22.6798C27.277 22.7632 27.4037 22.8049 27.4881 22.7493C28.023 22.3602 28.5578 21.9571 29.0927 21.568C29.1771 21.5124 29.2194 21.4152 29.1631 21.3179C29.1208 21.2484 28.9942 21.1928 28.9097 21.2484Z" fill="#444647"/>
<path d="M31.1758 26.3624C30.5283 26.3068 29.8809 26.2513 29.2334 26.1957C29.1349 26.1818 29.0504 26.279 29.0504 26.3763C29.0504 26.4875 29.1349 26.557 29.2334 26.557C29.8809 26.6126 30.5283 26.6682 31.1758 26.7237C31.2743 26.7376 31.3587 26.6404 31.3587 26.5431C31.3587 26.4319 31.2743 26.3624 31.1758 26.3624Z" fill="#444647"/>
<path d="M30.289 31.5321C29.7261 31.1013 29.149 30.6705 28.586 30.2536C28.5015 30.198 28.3749 30.2397 28.3326 30.3231C28.2763 30.4203 28.3186 30.5176 28.403 30.5732C28.966 31.004 29.5431 31.4348 30.1061 31.8517C30.1905 31.9073 30.3172 31.8656 30.3594 31.7822C30.4157 31.6989 30.3735 31.6016 30.289 31.5321Z" fill="#444647"/>
<path d="M6.09442 2.23743H6.38999V4.1552H7.54413V4.39145H6.09442V2.23743Z" fill="#444647"/>
<path d="M9.09234 3.90499C9.02197 4.25241 8.76862 4.43307 8.41675 4.43307C7.91005 4.43307 7.67078 4.08565 7.65671 3.61315C7.65671 3.14066 7.96635 2.80713 8.40267 2.80713C8.96567 2.80713 9.13457 3.32132 9.12049 3.69653H7.9382C7.92413 3.97447 8.07895 4.21072 8.43082 4.21072C8.64195 4.21072 8.79677 4.11344 8.83899 3.90499H9.09234ZM8.85307 3.46028C8.83899 3.21014 8.65602 3.01558 8.40267 3.01558C8.13525 3.01558 7.96635 3.22404 7.95228 3.46028H8.85307Z" fill="#444647"/>
<path d="M10.4576 3.33523C10.4154 3.14067 10.2746 3.0295 10.0635 3.0295C9.68348 3.0295 9.57088 3.32133 9.57088 3.64096C9.57088 3.9328 9.69756 4.21074 10.0354 4.21074C10.2887 4.21074 10.4294 4.07177 10.4717 3.83552H10.7391C10.6828 4.21074 10.4435 4.44699 10.0494 4.44699C9.57088 4.44699 9.31754 4.11346 9.31754 3.65486C9.31754 3.18237 9.55681 2.82104 10.0635 2.82104C10.4154 2.82104 10.7109 2.98781 10.7391 3.36303H10.4576V3.33523Z" fill="#444647"/>
<path d="M12.1044 3.33523C12.0621 3.14067 11.9214 3.0295 11.7103 3.0295C11.3302 3.0295 11.2176 3.32133 11.2176 3.64096C11.2176 3.9328 11.3443 4.21074 11.6821 4.21074C11.9355 4.21074 12.0762 4.07177 12.1184 3.83552H12.3859C12.3296 4.21074 12.0903 4.44699 11.6962 4.44699C11.2176 4.44699 10.9643 4.11346 10.9643 3.65486C10.9643 3.18237 11.2036 2.82104 11.7103 2.82104C12.0621 2.82104 12.3577 2.98781 12.3859 3.36303H12.1044V3.33523Z" fill="#444647"/>
<path d="M12.9348 2.55706H12.6814V2.23743H12.9348V2.55706ZM12.6814 2.83499H12.9348V4.39145H12.6814V2.83499Z" fill="#444647"/>
<path d="M14.0185 2.80713C14.5252 2.80713 14.7786 3.16845 14.7786 3.62705C14.7786 4.08565 14.5111 4.43307 14.0185 4.43307C13.5118 4.43307 13.2585 4.07175 13.2585 3.62705C13.2585 3.15455 13.5259 2.80713 14.0185 2.80713ZM14.0185 4.21072C14.2859 4.21072 14.5111 4.00226 14.5111 3.62705C14.5111 3.25183 14.2859 3.04338 14.0185 3.04338C13.7511 3.04338 13.5259 3.25183 13.5259 3.62705C13.5259 3.98837 13.7511 4.21072 14.0185 4.21072Z" fill="#444647"/>
<path d="M15.0882 2.83492H15.3275V3.08507C15.4401 2.89051 15.609 2.80713 15.8342 2.80713C16.2424 2.80713 16.3831 3.04338 16.3831 3.3769V4.40528H16.1298V3.33521C16.1298 3.14066 16.0031 3.01558 15.806 3.01558C15.4964 3.01558 15.3416 3.22404 15.3416 3.50198V4.37748H15.0882V2.83492V2.83492Z" fill="#444647"/>
<path d="M18.1284 3.90499C18.058 4.25241 17.8047 4.43307 17.4528 4.43307C16.9461 4.43307 16.7068 4.08565 16.6927 3.61315C16.6927 3.14066 17.0024 2.80713 17.4387 2.80713C18.0017 2.80713 18.1706 3.32132 18.1565 3.69653H16.9742C16.9602 3.97447 17.115 4.21072 17.4669 4.21072C17.678 4.21072 17.8328 4.11344 17.875 3.90499H18.1284ZM17.8891 3.46028C17.875 3.21014 17.6921 3.01558 17.4387 3.01558C17.1713 3.01558 17.0024 3.22404 16.9883 3.46028H17.8891Z" fill="#444647"/>
<path d="M18.5788 3.90509C18.5929 4.12744 18.7899 4.21082 19.001 4.21082C19.1559 4.21082 19.3811 4.16913 19.3811 3.97457C19.3811 3.78002 19.1277 3.73833 18.8603 3.68274C18.6069 3.62715 18.3395 3.54377 18.3395 3.23804C18.3395 2.91841 18.6492 2.79333 18.9307 2.79333C19.2825 2.79333 19.55 2.90451 19.5781 3.27973H19.3248C19.3107 3.08517 19.1277 3.01569 18.9588 3.01569C18.804 3.01569 18.621 3.05738 18.621 3.21024C18.621 3.3909 18.9025 3.4187 19.1418 3.48818C19.3951 3.54377 19.6625 3.62715 19.6625 3.93288C19.6625 4.3081 19.3107 4.41928 18.987 4.41928C18.6351 4.41928 18.3395 4.28031 18.3254 3.89119H18.5788V3.90509Z" fill="#444647"/>
<path d="M22.2101 4.98895H21.9568V4.18293C21.8723 4.34969 21.6753 4.43307 21.4501 4.43307C20.9715 4.43307 20.7182 4.05785 20.7182 3.61315C20.7182 3.16845 20.9574 2.80713 21.436 2.80713C21.5908 2.80713 21.8301 2.86272 21.9427 3.05727V2.84882H22.196V4.98895H22.2101ZM21.4782 4.21072C21.8301 4.21072 21.9568 3.91888 21.9568 3.62705C21.9568 3.32132 21.816 3.04338 21.4641 3.04338C21.1123 3.04338 20.9856 3.33521 20.9856 3.64094C20.9856 3.91888 21.1404 4.21072 21.4782 4.21072Z" fill="#444647"/>
<path d="M23.9131 4.3914H23.6739V4.14125C23.5613 4.33581 23.3924 4.41919 23.1672 4.41919C22.759 4.41919 22.6183 4.18295 22.6183 3.84942V2.82104H22.8716V3.89111C22.8716 4.08567 22.9983 4.21074 23.1953 4.21074C23.505 4.21074 23.6598 4.00228 23.6598 3.72435V2.84884H23.9131V4.3914V4.3914Z" fill="#444647"/>
<path d="M25.6443 3.90499C25.574 4.25241 25.3206 4.43307 24.9687 4.43307C24.4621 4.43307 24.2228 4.08565 24.2087 3.61315C24.2087 3.14066 24.5184 2.80713 24.9547 2.80713C25.5177 2.80713 25.6866 3.32132 25.6725 3.69653H24.4902C24.4761 3.97447 24.631 4.21072 24.9828 4.21072C25.1939 4.21072 25.3488 4.11344 25.391 3.90499H25.6443ZM25.391 3.46028C25.3769 3.21014 25.1939 3.01558 24.9406 3.01558C24.6732 3.01558 24.5043 3.22404 24.4902 3.46028H25.391Z" fill="#444647"/>
<path d="M26.9393 3.90509C26.9533 4.12744 27.1504 4.21082 27.3615 4.21082C27.5163 4.21082 27.7415 4.16913 27.7415 3.97457C27.7415 3.78002 27.4882 3.73833 27.2208 3.68274C26.9674 3.62715 26.7 3.54377 26.7 3.23804C26.7 2.91841 27.0096 2.79333 27.2911 2.79333C27.643 2.79333 27.9104 2.90451 27.9386 3.27973H27.6852C27.6712 3.08517 27.4882 3.01569 27.3193 3.01569C27.1645 3.01569 26.9815 3.05738 26.9815 3.21024C26.9815 3.3909 27.263 3.4187 27.5023 3.48818C27.7556 3.54377 28.023 3.62715 28.023 3.93288C28.023 4.3081 27.6712 4.41928 27.3474 4.41928C26.9956 4.41928 26.7 4.28031 26.6859 3.89119H26.9393V3.90509Z" fill="#444647"/>
<path d="M29.712 4.3914C29.6698 4.41919 29.6135 4.43309 29.529 4.43309C29.3883 4.43309 29.3038 4.3636 29.3038 4.19684C29.1631 4.3636 28.966 4.43309 28.7549 4.43309C28.4734 4.43309 28.2341 4.30802 28.2341 4.00228C28.2341 3.65486 28.5016 3.57148 28.769 3.52979C29.0505 3.4742 29.3038 3.4881 29.3038 3.30744C29.3038 3.08509 29.1208 3.0434 28.9519 3.0434C28.7267 3.0434 28.5719 3.11288 28.5579 3.33523H28.2904C28.3045 2.94612 28.6142 2.82104 28.9519 2.82104C29.2334 2.82104 29.5431 2.89053 29.5431 3.25185V4.03008C29.5431 4.15515 29.5431 4.21074 29.6275 4.21074C29.6557 4.21074 29.6698 4.21074 29.712 4.19684V4.3914V4.3914ZM29.2897 3.58538C29.1912 3.65486 28.9942 3.65486 28.8253 3.69655C28.6564 3.72435 28.5016 3.77993 28.5016 3.97449C28.5016 4.14125 28.6423 4.19684 28.8112 4.19684C29.149 4.19684 29.2897 3.98839 29.2897 3.84942V3.58538V3.58538Z" fill="#444647"/>
<path d="M30.2187 2.23743H29.9653V4.39145H30.2187V2.23743Z" fill="#444647"/>
<path d="M31.3306 4.39142H31.0632L30.472 2.83496H30.7676L31.2039 4.14127L31.6403 2.83496H31.9077L31.3306 4.39142Z" fill="#444647"/>
<path d="M33.5404 4.3914C33.4981 4.41919 33.4418 4.43309 33.3574 4.43309C33.2166 4.43309 33.1322 4.3636 33.1322 4.19684C32.9914 4.3636 32.7944 4.43309 32.5833 4.43309C32.3018 4.43309 32.0625 4.30802 32.0625 4.00228C32.0625 3.65486 32.3299 3.57148 32.5973 3.52979C32.8788 3.4742 33.1322 3.4881 33.1322 3.30744C33.1322 3.08509 32.9492 3.0434 32.7803 3.0434C32.5551 3.0434 32.4003 3.11288 32.3862 3.33523H32.1329C32.1469 2.94612 32.4566 2.82104 32.7944 2.82104C33.0759 2.82104 33.3855 2.89053 33.3855 3.25185V4.03008C33.3855 4.15515 33.3855 4.21074 33.47 4.21074C33.4981 4.21074 33.5122 4.21074 33.5544 4.19684V4.3914H33.5404ZM33.1181 3.58538C33.0196 3.65486 32.8225 3.65486 32.6536 3.69655C32.4847 3.72435 32.3299 3.77993 32.3299 3.97449C32.3299 4.14125 32.4707 4.19684 32.6396 4.19684C32.9774 4.19684 33.1181 3.98839 33.1181 3.84942V3.58538V3.58538Z" fill="#444647"/>
<path d="M33.7796 2.83492H34.0189V3.08507C34.1315 2.89051 34.3004 2.80713 34.5256 2.80713C34.9337 2.80713 35.0745 3.04338 35.0745 3.3769V4.40528H34.8211V3.33521C34.8211 3.14066 34.6945 3.01558 34.4974 3.01558C34.1878 3.01558 34.0329 3.22404 34.0329 3.50198V4.37748H33.7796V2.83492Z" fill="#444647"/>
<path d="M9.34569 6.22583C9.28939 6.08686 9.35976 5.96179 9.52866 5.96179H10.5983C10.6969 5.96179 10.7532 6.01738 10.7813 6.07297L12.7799 10.5061H12.8503L14.8489 6.07297C14.863 6.01738 14.9334 5.96179 15.0319 5.96179H16.1016C16.2564 5.96179 16.3409 6.10076 16.2846 6.22583L13.0474 13.1604C13.0192 13.216 12.9629 13.2716 12.8644 13.2716H12.7659C12.6673 13.2716 12.6251 13.216 12.5829 13.1604L9.34569 6.22583Z" fill="#FFC033"/>
<path d="M16.8617 7.37922C16.8617 7.30974 16.918 7.25415 16.9883 7.25415H17.6358C17.7062 7.25415 17.7625 7.30974 17.7625 7.37922V11.9096C17.7625 11.9791 17.7062 12.0347 17.6358 12.0347H16.9883C16.918 12.0347 16.8617 11.9791 16.8617 11.9096V7.37922Z" fill="#F9423E"/>
<path d="M19.0292 7.37922C19.0292 7.30974 19.0855 7.25415 19.1558 7.25415H20.8026C22.1397 7.25415 23.2375 8.32421 23.2375 9.64442C23.2375 10.9785 22.1397 12.0486 20.8026 12.0486H19.1558C19.0855 12.0486 19.0292 11.993 19.0292 11.9235V7.37922ZM20.7182 11.2148C21.6189 11.2148 22.2805 10.5477 22.2805 9.64442C22.2805 8.75502 21.6189 8.08797 20.7182 8.08797H19.93V11.2148H20.7182Z" fill="#F9423E"/>
<path d="M23.4768 11.868L25.6303 7.26809C25.6444 7.2264 25.6866 7.19861 25.7429 7.19861H25.8133C25.8836 7.19861 25.9118 7.2264 25.9259 7.26809L28.0652 11.868C28.1075 11.9514 28.0512 12.0486 27.9526 12.0486H27.3474C27.2489 12.0486 27.1926 12.0069 27.1504 11.9097L26.8126 11.1731H24.7436L24.4058 11.9097C24.3776 11.9792 24.3213 12.0486 24.2087 12.0486H23.6035C23.4909 12.0486 23.4346 11.9514 23.4768 11.868ZM26.4748 10.4088L25.7851 8.90793H25.757L25.0814 10.4088H26.4748Z" fill="#F9423E"/>
<path d="M28.4171 11.3677L28.6705 10.9369C28.7268 10.8396 28.8394 10.8396 28.9097 10.8952C28.9379 10.9091 29.5009 11.326 29.9513 11.326C30.3172 11.326 30.5846 11.0897 30.5846 10.7979C30.5846 10.4505 30.2891 10.2142 29.6979 9.97798C29.0505 9.71393 28.389 9.31092 28.389 8.5049C28.389 7.89344 28.8394 7.18469 29.9513 7.18469C30.655 7.18469 31.2039 7.54601 31.3447 7.64329C31.415 7.68498 31.4291 7.79616 31.3869 7.86564L31.1195 8.25476C31.0632 8.33814 30.9646 8.39373 30.8802 8.33814C30.8239 8.31034 30.3031 7.96292 29.9231 7.96292C29.529 7.96292 29.3179 8.22696 29.3179 8.43542C29.3179 8.75505 29.5712 8.9774 30.1342 9.19975C30.8098 9.46379 31.5839 9.8668 31.5839 10.7423C31.5839 11.4511 30.9647 12.1042 29.9935 12.1042C29.1208 12.1042 28.6001 11.7012 28.4734 11.5761C28.389 11.5205 28.3608 11.4788 28.4171 11.3677Z" fill="#F9423E"/>
</g>
<defs>
<clipPath id="clip0">
<rect width="41" height="48" fill="white"/>
</clipPath>
</defs>
</svg>
