<svg width="48" height="48" viewBox="0 0 48 48" fill="none" xmlns="http://www.w3.org/2000/svg">
<circle opacity="0.3" cx="24" cy="24" r="24" fill="white"/>
<path d="M25.8302 17C25.6808 16.9995 25.5332 17.0324 25.3982 17.0965C25.2632 17.1605 25.1443 17.2539 25.0502 17.37L20.2202 23.37C20.0731 23.5489 19.9927 23.7733 19.9927 24.005C19.9927 24.2366 20.0731 24.461 20.2202 24.64L25.2202 30.64C25.3899 30.8442 25.6338 30.9726 25.8982 30.997C26.1627 31.0214 26.4259 30.9397 26.6302 30.77C26.8344 30.6002 26.9628 30.3563 26.9872 30.0919C27.0116 29.8275 26.9299 29.5642 26.7602 29.36L22.2902 24L26.6102 18.64C26.7324 18.4932 26.8101 18.3144 26.834 18.1249C26.8579 17.9353 26.827 17.7429 26.7449 17.5704C26.6629 17.3979 26.5331 17.2525 26.371 17.1514C26.2089 17.0503 26.0212 16.9977 25.8302 17Z" fill="white"/>
</svg>
