<svg width="48" height="48" viewBox="0 0 48 48" fill="none" xmlns="http://www.w3.org/2000/svg">
<circle opacity="0.3" cx="24" cy="24" r="24" transform="rotate(-90 24 24)" fill="#7A4909"/>
<path d="M16.9997 26.8462C16.9992 26.6968 17.0322 26.5492 17.0962 26.4142C17.1602 26.2793 17.2537 26.1603 17.3697 26.0662L23.3697 21.2362C23.5487 21.0891 23.7731 21.0087 24.0047 21.0087C24.2363 21.0087 24.4608 21.0891 24.6397 21.2362L30.6397 26.2362C30.8439 26.406 30.9724 26.6499 30.9967 26.9143C31.0211 27.1787 30.9395 27.442 30.7697 27.6462C30.6 27.8504 30.3561 27.9789 30.0916 28.0032C29.8272 28.0276 29.5639 27.946 29.3597 27.7762L23.9997 23.3062L18.6397 27.6262C18.4929 27.7485 18.3142 27.8262 18.1247 27.8501C17.9351 27.8739 17.7427 27.843 17.5701 27.761C17.3976 27.6789 17.2522 27.5492 17.1511 27.387C17.05 27.2249 16.9975 27.0373 16.9997 26.8462Z" fill="#7A4909"/>
</svg>
