<svg width="48" height="48" viewBox="0 0 48 48" fill="none" xmlns="http://www.w3.org/2000/svg">
<circle opacity="0.3" cx="24" cy="24" r="24" fill="white"/>
<path d="M21.1537 17C21.3031 16.9995 21.4507 17.0324 21.5857 17.0965C21.7207 17.1605 21.8396 17.2539 21.9337 17.37L26.7637 23.37C26.9108 23.5489 26.9912 23.7733 26.9912 24.005C26.9912 24.2366 26.9108 24.461 26.7637 24.64L21.7637 30.64C21.594 30.8442 21.3501 30.9726 21.0856 30.997C20.8212 31.0214 20.5579 30.9397 20.3537 30.77C20.1495 30.6002 20.0211 30.3563 19.9967 30.0919C19.9723 29.8275 20.054 29.5642 20.2237 29.36L24.6937 24L20.3737 18.64C20.2514 18.4932 20.1738 18.3144 20.1499 18.1249C20.126 17.9353 20.1569 17.7429 20.239 17.5704C20.321 17.3979 20.4508 17.2525 20.6129 17.1514C20.775 17.0503 20.9627 16.9977 21.1537 17Z" fill="white"/>
</svg>
