<svg width="478" height="405" viewBox="0 0 478 405" fill="none" xmlns="http://www.w3.org/2000/svg">
<circle cx="257.183" cy="212" r="182" fill="white"/>
<g clip-path="url(#clip0)">
<path d="M282.121 177.712L284.381 203.198C284.381 203.198 292.359 198.997 291.798 189.262C291.236 179.659 282.121 177.712 282.121 177.712Z" fill="#010202"/>
<path d="M244.183 177.156L241.922 202.642C241.922 202.642 233.944 198.441 234.506 188.706C235.067 179.103 244.183 177.156 244.183 177.156Z" fill="#010202"/>
<path d="M322.586 367.273C316.367 341.23 292.773 321.848 264.6 321.848C236.427 321.848 212.833 341.23 206.613 367.273H322.586Z" fill="#E94E1B"/>
<path d="M247.462 188.823C247.462 191.912 244.936 194.415 241.818 194.415C238.701 194.415 236.16 191.912 236.16 188.823C236.16 185.734 238.686 183.216 241.818 183.216C244.936 183.216 247.462 185.719 247.462 188.823Z" fill="#F5AC9F"/>
<path d="M245.394 188.823C245.394 190.785 243.784 192.38 241.804 192.38C239.824 192.38 238.214 190.785 238.214 188.823C238.214 186.861 239.824 185.266 241.804 185.266C243.798 185.266 245.394 186.847 245.394 188.823Z" fill="#F2908E"/>
<path d="M289.995 188.823C289.995 191.912 287.469 194.415 284.352 194.415C281.234 194.415 278.708 191.912 278.708 188.823C278.708 185.734 281.234 183.216 284.352 183.216C287.469 183.216 289.995 185.719 289.995 188.823Z" fill="#F5AC9F"/>
<path d="M287.942 188.823C287.942 190.785 286.331 192.38 284.352 192.38C282.372 192.38 280.762 190.785 280.762 188.823C280.762 186.861 282.372 185.266 284.352 185.266C286.331 185.266 287.942 186.847 287.942 188.823Z" fill="#F2908E"/>
<path d="M284.352 240.557C284.352 252.078 274.823 261.403 263.078 261.403C251.333 261.403 241.804 252.063 241.804 240.557V203.989C241.804 192.468 251.333 183.143 263.078 183.143C274.823 183.143 284.352 192.483 284.352 203.989V240.557Z" fill="#F5AC9F"/>
<path d="M284.352 207.341C284.352 218.862 274.823 228.187 263.078 228.187C251.333 228.187 241.804 218.848 241.804 207.341V181.006C241.804 169.485 251.333 160.16 263.078 160.16C274.823 160.16 284.352 169.499 284.352 181.006V207.341Z" fill="#F2908E"/>
<path d="M284.352 200.681C284.352 211.411 274.823 220.107 263.078 220.107C251.333 220.107 241.804 211.411 241.804 200.681V176.145C241.804 165.415 251.333 156.719 263.078 156.719C274.823 156.719 284.352 165.415 284.352 176.145V200.681Z" fill="#F5AC9F"/>
<path d="M252.027 167.684L236.914 188.442C236.914 188.442 232.231 180.786 237.741 172.705C243.178 164.741 252.027 167.684 252.027 167.684Z" fill="#010202"/>
<path d="M262.28 162.37L247.182 183.128C247.182 183.128 242.498 175.472 248.009 167.391C253.431 159.428 262.28 162.37 262.28 162.37Z" fill="#010202"/>
<path d="M271.573 159.647L256.475 180.405C256.475 180.405 251.791 172.749 257.302 164.668C262.724 156.69 271.573 159.647 271.573 159.647Z" fill="#010202"/>
<path d="M278.738 159.091L263.64 179.849C263.64 179.849 258.956 172.193 264.467 164.112C269.889 156.134 278.738 159.091 278.738 159.091Z" fill="#010202"/>
<path d="M265.944 160.086L281.058 180.844C281.058 180.844 285.741 173.188 280.231 165.107C274.794 157.144 265.944 160.086 265.944 160.086Z" fill="#010202"/>
<path d="M274.011 164.756L289.109 185.514C289.109 185.514 293.793 177.858 288.282 169.777C282.86 161.814 274.011 164.756 274.011 164.756Z" fill="#010202"/>
<path d="M248.393 182.265C248.615 183.158 249.531 183.714 250.432 183.494L256.489 182.03C257.39 181.811 257.952 180.903 257.73 180.01C257.508 179.117 256.592 178.561 255.691 178.781L249.634 180.245C248.718 180.464 248.171 181.372 248.393 182.265Z" fill="#010202"/>
<path d="M278.546 182.191C278.295 183.084 277.364 183.597 276.463 183.348L270.465 181.664C269.564 181.416 269.047 180.493 269.298 179.6C269.549 178.722 270.48 178.195 271.381 178.458L277.379 180.142C278.295 180.376 278.812 181.298 278.546 182.191Z" fill="#010202"/>
<path d="M362.194 211.557C371.605 206.595 383.306 210.137 388.314 219.462C393.322 228.802 389.747 240.382 380.336 245.344L323.945 276.262C314.534 281.225 302.833 277.682 297.825 268.357L310.826 261.594C305.818 252.269 296.392 247.438 305.818 242.475L362.194 211.557Z" fill="#F9423E"/>
<path d="M336.642 225.449L327.232 230.73L346.329 264.14L355.739 258.859L336.642 225.449Z" fill="#DB9D25"/>
<path d="M322.394 367.273V246.749C322.394 243.324 319.602 240.557 316.145 240.557H210.026C206.569 240.557 203.776 243.324 203.776 246.749V367.273H322.394Z" fill="#F9423E"/>
<path d="M243.533 241.831H237.505V367.273H243.533V241.831Z" fill="#D62D38"/>
<path d="M275.369 186.451C275.369 187.52 274.497 188.384 273.419 188.384C272.34 188.384 271.469 187.52 271.469 186.451C271.469 185.383 272.34 184.519 273.419 184.519C274.497 184.519 275.369 185.383 275.369 186.451Z" fill="#010202"/>
<path d="M255.661 186.451C255.661 187.52 254.789 188.384 253.711 188.384C252.632 188.384 251.761 187.52 251.761 186.451C251.761 185.383 252.632 184.519 253.711 184.519C254.789 184.519 255.661 185.383 255.661 186.451Z" fill="#010202"/>
<path d="M292.788 175.78V160.775C292.788 145.506 280.304 133.136 264.895 133.136H262.384C246.975 133.136 234.491 145.506 234.491 160.775V175.794H292.788V175.78Z" fill="#E6332A"/>
<path d="M274.602 161.14C274.602 165.269 271.218 168.606 267.052 168.606H258.986C254.82 168.606 251.437 165.254 251.437 161.14V137.542C251.437 133.414 254.82 130.062 258.986 130.062H267.052C271.218 130.062 274.602 133.414 274.602 137.542V161.14Z" fill="#E6332A"/>
<path opacity="0.5" d="M272.725 159.237C272.725 162.707 269.889 165.503 266.402 165.503H259.636C256.149 165.503 253.312 162.692 253.312 159.237V139.445C253.312 135.991 256.149 133.18 259.636 133.18H266.402C269.889 133.18 272.725 135.991 272.725 139.445V159.237Z" fill="#E94E1B"/>
<path d="M292.788 175.779V160.774C292.788 154.685 290.793 149.063 287.425 144.496C287.129 145.477 286.967 146.501 286.967 147.585V175.794H292.788V175.779Z" fill="#D2CDE8"/>
<path d="M234.491 175.779V160.774C234.491 154.685 236.486 149.063 239.839 144.496C240.135 145.477 240.297 146.501 240.297 147.585V175.794H234.491V175.779Z" fill="#D2CDE8"/>
<path d="M294.841 173.057C294.841 174.887 293.926 176.365 292.788 176.365H234.476C233.339 176.365 232.423 174.887 232.423 173.057C232.423 171.227 233.339 169.748 234.476 169.748H292.788C293.911 169.748 294.841 171.227 294.841 173.057Z" fill="white"/>
<path d="M322.394 313.386H203.776V330.324H322.394V313.386Z" fill="#FFC033"/>
<path d="M266.83 194.166C266.83 196.216 265.146 197.884 263.078 197.884C261.009 197.884 259.325 196.216 259.325 194.166C259.325 192.117 261.009 190.448 263.078 190.448C265.146 190.448 266.83 192.117 266.83 194.166Z" fill="#F2908E"/>
<path d="M266.83 192.848C266.83 194.898 265.146 196.567 263.078 196.567C261.009 196.567 259.325 194.898 259.325 192.848C259.325 190.799 261.009 189.13 263.078 189.13C265.146 189.13 266.83 190.799 266.83 192.848Z" fill="#F5AC9F"/>
<path d="M275.443 201.046C275.443 206.814 270.154 211.499 263.639 211.499C257.124 211.499 251.835 206.814 251.835 201.046H275.443Z" fill="#AB293C"/>
<path d="M267.525 206.492C267.525 208.615 265.782 210.342 263.639 210.342C261.497 210.342 259.754 208.615 259.754 206.492C259.754 204.355 261.497 202.642 263.639 202.642C265.782 202.642 267.525 204.37 267.525 206.492Z" fill="#640714"/>
<path d="M253.489 201.046C253.489 201.061 253.489 201.076 253.489 201.09C253.489 202.832 254.922 204.252 256.68 204.252H271.262C273.02 204.252 274.453 202.832 274.453 201.09C274.453 201.076 274.453 201.061 274.453 201.046H253.489Z" fill="white"/>
<path d="M254.554 207.737C256.725 210.035 259.976 211.499 263.625 211.499C267.274 211.499 270.524 210.035 272.696 207.737H254.554Z" fill="white"/>
<path d="M286.76 228.187H237.505V241.831H286.76V228.187Z" fill="#D62D38"/>
<path d="M274.881 143.003C274.689 143.017 274.497 143.032 274.305 143.032C268.352 143.032 263.491 138.465 263.063 132.667C263.033 132.667 263.003 132.682 262.974 132.682C262.56 138.26 258.04 142.681 252.381 143.003C252.366 143.281 252.337 143.559 252.337 143.837C252.337 150.015 257.389 159.237 263.624 159.237C269.858 159.237 274.911 150.015 274.911 143.837C274.926 143.559 274.896 143.281 274.881 143.003Z" fill="white"/>
<path d="M382.759 157.291H363.627V177.156H382.759V157.291Z" fill="#F5AC9F"/>
<path d="M388.904 152.767C386.806 160.994 378.386 165.986 370.068 163.907C361.765 161.829 356.727 153.47 358.825 145.243C360.923 137.015 369.359 132.023 377.647 134.102C385.964 136.181 390.987 144.54 388.904 152.767Z" fill="#F5AC9F"/>
<path d="M380.514 135.098C380.085 136.81 378.327 137.835 376.599 137.411C374.87 136.972 373.821 135.244 374.265 133.531L379.598 112.597C380.026 110.885 381.784 109.86 383.513 110.285C385.242 110.724 386.29 112.451 385.847 114.164L380.514 135.098Z" fill="#F5AC9F"/>
<path d="M385.862 140.148C385.433 141.861 383.675 142.886 381.947 142.461C380.218 142.037 379.184 140.295 379.612 138.582L384.946 117.648C385.389 115.935 387.132 114.911 388.861 115.335C390.589 115.76 391.623 117.502 391.195 119.214L385.862 140.148Z" fill="#F5AC9F"/>
<path d="M389.215 151.552C388.787 153.265 387.029 154.304 385.3 153.865C383.572 153.44 382.523 151.698 382.966 149.986L388.299 129.052C388.742 127.339 390.486 126.3 392.214 126.739C393.943 127.163 394.977 128.905 394.548 130.618L389.215 151.552Z" fill="#F5AC9F"/>
<path d="M373.393 137.411C372.964 139.123 371.206 140.163 369.478 139.724C367.749 139.299 366.7 137.557 367.144 135.844L372.477 114.896C372.905 113.183 374.663 112.158 376.392 112.583C378.12 113.007 379.154 114.749 378.726 116.462L373.393 137.411Z" fill="#F5AC9F"/>
<path d="M366.892 149.81C367.527 152.035 366.227 154.363 363.982 154.992C361.736 155.622 359.387 154.333 358.752 152.108L354.261 136.503C353.625 134.278 354.925 131.95 357.171 131.321C359.417 130.677 361.766 131.98 362.401 134.205L366.892 149.81Z" fill="#F5AC9F"/>
<path d="M352.178 167.626L352.355 227.236C352.503 237.805 361.278 246.252 371.945 246.091C382.611 245.945 391.136 237.249 390.988 226.68L390.811 167.626H352.178Z" fill="#F9423E"/>
<path d="M390.973 188.764H352.178V199.48H390.973V188.764Z" fill="#FFC033"/>
<path d="M152.601 223.869C142.333 221.014 131.666 226.957 128.786 237.132C125.905 247.306 131.903 257.875 142.17 260.73L203.924 278.985C214.192 281.839 224.859 275.896 227.739 265.722L213.586 261.872C216.467 251.697 224.622 244.978 214.355 242.123L152.601 223.869Z" fill="#F9423E"/>
<path d="M180.545 232.026L169.105 268.712L179.437 271.875L190.877 235.19L180.545 232.026Z" fill="#DB9D25"/>
<path d="M139.476 171.17L120.788 175.225L125.076 194.629L143.764 190.574L139.476 171.17Z" fill="#F5AC9F"/>
<path d="M113.819 172.105C117.646 179.703 126.953 182.777 134.621 179C142.288 175.209 145.391 165.986 141.564 158.388C137.738 150.791 128.431 147.716 120.763 151.493C113.11 155.285 109.993 164.507 113.819 172.105Z" fill="#F5AC9F"/>
<path d="M118.193 153.074C118.991 154.655 120.926 155.285 122.507 154.509C124.103 153.719 124.753 151.801 123.955 150.234L114.219 130.911C113.421 129.33 111.486 128.7 109.905 129.476C108.31 130.267 107.659 132.185 108.457 133.766L118.193 153.074Z" fill="#F5AC9F"/>
<path d="M114.057 159.15C114.854 160.731 116.79 161.36 118.385 160.584C119.981 159.794 120.616 157.876 119.833 156.31L110.097 136.971C109.299 135.39 107.364 134.761 105.783 135.537C104.188 136.327 103.553 138.245 104.336 139.811L114.057 159.15Z" fill="#F5AC9F"/>
<path d="M113.259 170.978C114.056 172.559 115.992 173.203 117.572 172.412C119.168 171.622 119.818 169.704 119.02 168.123L109.284 148.8C108.487 147.219 106.551 146.575 104.97 147.365C103.375 148.156 102.725 150.059 103.523 151.64L113.259 170.978Z" fill="#F5AC9F"/>
<path d="M125.653 153.821C126.451 155.402 128.387 156.046 129.967 155.256C131.563 154.465 132.213 152.547 131.415 150.981L121.679 131.657C120.882 130.076 118.946 129.447 117.365 130.223C115.77 131.013 115.135 132.931 115.918 134.497L125.653 153.821Z" fill="#F5AC9F"/>
<path d="M134.68 164.552C134.533 166.864 136.306 168.855 138.655 169.002C140.989 169.148 142.998 167.392 143.146 165.079L144.165 148.888C144.313 146.575 142.54 144.584 140.206 144.437C137.872 144.291 135.862 146.048 135.715 148.361L134.68 164.552Z" fill="#F5AC9F"/>
<path d="M152.896 178.839L165.601 237.103C167.729 247.452 160.992 257.568 150.547 259.676C140.102 261.799 129.893 255.109 127.766 244.759L115.164 187.037L152.896 178.839Z" fill="#F9423E"/>
<path d="M157.457 199.478L119.565 207.731L121.887 218.197L159.779 209.944L157.457 199.478Z" fill="#FFC033"/>
</g>
<rect x="52.2734" y="345.636" width="417.455" height="48.3636" fill="#FFC033"/>
<path d="M89.7404 345L80 352.849C80.9899 353.759 82.4607 358.508 85.2326 363.968C88.0045 369.428 90.2354 374.348 90.7304 376.396C94.3896 372.471 98.314 367.239 100.276 364.622L100.276 364.622C97.66 358.736 92.4274 349.579 89.7404 345Z" fill="#FFC033"/>
<path d="M102.997 10.4652C102.997 10.4652 83.3753 3.27037 73.5813 0C71.6021 7.84889 71.6021 11.7733 72.9102 18.9681C78.7968 20.2763 88.0046 21.2701 102.343 24.8548C101.035 17.66 102.997 10.4652 102.997 10.4652Z" fill="#219653"/>
<path d="M7.96599 214L0 217.485C1.9915 225.451 7.1362 230.762 9.45961 232.421C10.1234 232.255 12.7456 231.226 17.9235 228.438C13.9405 226.447 9.62557 217.983 7.96599 214Z" fill="#F9423E"/>
<path d="M465.979 351L461 355.481C462.195 362.65 468.8 368.426 471.953 370.417C472.451 370.085 474.243 368.326 477.43 363.945C471.854 361.953 467.472 354.485 465.979 351Z" fill="#F9423E"/>
<path d="M332.443 383L319 384.991C319 396.94 323.979 402.583 326.468 403.911C327.132 404.077 329.754 404.309 334.932 403.911C330.949 398.335 331.613 387.647 332.443 383Z" fill="#FFC033"/>
<path d="M460.485 186.64L453.017 180.666C465.762 173.895 467.289 164.568 466.459 160.751C468.119 161.415 472.533 163.34 476.915 165.73C478.109 176.085 466.459 183.985 460.485 186.64Z" fill="#6C98FE"/>
<path d="M430.823 40.3956L419 39.5235C425.756 31.1513 425.193 15.6861 424.067 9H438.423C439.774 22.9536 433.919 35.7444 430.823 40.3956Z" fill="#FFC033"/>
<path d="M170.212 63.6978L166 59.1537C172.126 56.1794 175.699 50.4786 176.72 48C177.359 48.4131 179.247 49.735 181.698 51.7179C180.166 56.6751 173.402 61.77 170.212 63.6978Z" fill="#477DFE"/>
<defs>
<clipPath id="clip0">
<rect width="291.455" height="257.091" fill="white" transform="translate(103.183 110.182)"/>
</clipPath>
</defs>
</svg>
