<svg width="800" height="48" viewBox="0 0 800 48" fill="none" xmlns="http://www.w3.org/2000/svg">
<mask id="mask0" mask-type="alpha" maskUnits="userSpaceOnUse" x="0" y="0" width="800" height="48">
<rect width="800" height="48" fill="#FFC033"/>
</mask>
<g mask="url(#mask0)">
<path d="M27.6523 -154L33.1719 -152.965L-44.4803 49.8967L-49.9999 48.8614L27.6523 -154Z" fill="#DB9D25"/>
<path d="M38.6915 -151.929L44.2111 -150.894L-33.4412 51.9672L-38.9607 50.932L38.6915 -151.929Z" fill="#DB9D25"/>
<path d="M49.7307 -149.859L55.2502 -148.824L-22.402 54.0378L-27.9216 53.0025L49.7307 -149.859Z" fill="#DB9D25"/>
<path d="M60.7698 -147.788L66.2894 -146.753L-11.3629 56.1084L-16.8824 55.0731L60.7698 -147.788Z" fill="#DB9D25"/>
<path d="M71.809 -145.718L77.3285 -144.683L-0.323697 58.1789L-5.84327 57.1436L71.809 -145.718Z" fill="#DB9D25"/>
<path d="M82.8481 -143.647L88.3677 -142.612L10.7155 60.2495L5.19588 59.2142L82.8481 -143.647Z" fill="#DB9D25"/>
<path d="M93.8873 -141.577L99.4068 -140.541L21.7546 62.32L16.235 61.2847L93.8873 -141.577Z" fill="#DB9D25"/>
<path d="M104.926 -139.506L110.446 -138.471L32.7938 64.3906L27.2742 63.3553L104.926 -139.506Z" fill="#DB9D25"/>
<path d="M115.966 -137.436L121.485 -136.4L43.8329 66.4611L38.3133 65.4258L115.966 -137.436Z" fill="#DB9D25"/>
<path d="M127.005 -135.365L132.524 -134.33L54.8721 68.5317L49.3525 67.4964L127.005 -135.365Z" fill="#DB9D25"/>
<path d="M138.044 -133.295L143.563 -132.259L65.9112 70.6022L60.3916 69.5669L138.044 -133.295Z" fill="#DB9D25"/>
<path d="M149.083 -131.224L154.603 -130.189L76.9504 72.6728L71.4308 71.6375L149.083 -131.224Z" fill="#DB9D25"/>
<path d="M160.122 -129.153L165.642 -128.118L87.9895 74.7433L82.47 73.7081L160.122 -129.153Z" fill="#DB9D25"/>
<path d="M171.161 -127.083L176.681 -126.048L99.0287 76.8139L93.5091 75.7786L171.161 -127.083Z" fill="#DB9D25"/>
<path d="M182.2 -125.012L187.72 -123.977L110.068 78.8844L104.548 77.8492L182.2 -125.012Z" fill="#DB9D25"/>
<path d="M193.24 -122.942L198.759 -121.906L121.107 80.955L115.587 79.9197L193.24 -122.942Z" fill="#DB9D25"/>
<path d="M204.279 -120.871L209.798 -119.836L132.146 83.0255L126.627 81.9903L204.279 -120.871Z" fill="#DB9D25"/>
<path d="M215.318 -118.801L220.838 -117.765L143.185 85.0961L137.666 84.0608L215.318 -118.801Z" fill="#DB9D25"/>
<path d="M226.357 -116.73L231.877 -115.695L154.224 87.1666L148.705 86.1314L226.357 -116.73Z" fill="#DB9D25"/>
<path d="M237.396 -114.66L242.916 -113.624L165.264 89.2372L159.744 88.2019L237.396 -114.66Z" fill="#DB9D25"/>
<path d="M248.435 -112.589L253.955 -111.554L176.303 91.3077L170.783 90.2725L248.435 -112.589Z" fill="#DB9D25"/>
<path d="M259.475 -110.518L264.994 -109.483L187.342 93.3783L181.822 92.343L259.475 -110.518Z" fill="#DB9D25"/>
<path d="M270.514 -108.448L276.033 -107.413L198.381 95.4489L192.861 94.4136L270.514 -108.448Z" fill="#DB9D25"/>
<path d="M281.553 -106.377L287.072 -105.342L209.42 97.5194L203.901 96.4841L281.553 -106.377Z" fill="#DB9D25"/>
<path d="M292.592 -104.307L298.112 -103.271L220.459 99.59L214.94 98.5547L292.592 -104.307Z" fill="#DB9D25"/>
<path d="M303.631 -102.236L309.151 -101.201L231.499 101.661L225.979 100.625L303.631 -102.236Z" fill="#DB9D25"/>
<path d="M314.67 -100.166L320.19 -99.1304L242.538 103.731L237.018 102.696L314.67 -100.166Z" fill="#DB9D25"/>
<path d="M325.709 -98.0951L331.229 -97.0598L253.577 105.802L248.057 104.766L325.709 -98.0951Z" fill="#DB9D25"/>
<path d="M336.749 -96.0246L342.268 -94.9893L264.616 107.872L259.096 106.837L336.749 -96.0246Z" fill="#DB9D25"/>
<path d="M347.788 -93.954L353.307 -92.9187L275.655 109.943L270.136 108.907L347.788 -93.954Z" fill="#DB9D25"/>
<path d="M358.827 -91.8835L364.347 -90.8482L286.694 112.013L281.175 110.978L358.827 -91.8835Z" fill="#DB9D25"/>
<path d="M369.866 -89.8129L375.386 -88.7776L297.733 114.084L292.214 113.049L369.866 -89.8129Z" fill="#DB9D25"/>
<path d="M380.905 -87.7424L386.425 -86.7071L308.773 116.154L303.253 115.119L380.905 -87.7424Z" fill="#DB9D25"/>
<path d="M391.944 -85.6718L397.464 -84.6365L319.812 118.225L314.292 117.19L391.944 -85.6718Z" fill="#DB9D25"/>
<path d="M402.984 -83.6012L408.503 -82.566L330.851 120.295L325.331 119.26L402.984 -83.6012Z" fill="#DB9D25"/>
<path d="M414.023 -81.5307L419.542 -80.4954L341.89 122.366L336.37 121.331L414.023 -81.5307Z" fill="#DB9D25"/>
<path d="M425.062 -79.4601L430.581 -78.4249L352.929 124.437L347.41 123.401L425.062 -79.4601Z" fill="#DB9D25"/>
<path d="M436.101 -77.3896L441.621 -76.3543L363.968 126.507L358.449 125.472L436.101 -77.3896Z" fill="#DB9D25"/>
<path d="M447.14 -75.319L452.66 -74.2838L375.008 128.578L369.488 127.542L447.14 -75.319Z" fill="#DB9D25"/>
<path d="M458.179 -73.2485L463.699 -72.2132L386.047 130.648L380.527 129.613L458.179 -73.2485Z" fill="#DB9D25"/>
<path d="M469.218 -71.1779L474.738 -70.1427L397.086 132.719L391.566 131.684L469.218 -71.1779Z" fill="#DB9D25"/>
<path d="M480.258 -69.1074L485.777 -68.0721L408.125 134.789L402.605 133.754L480.258 -69.1074Z" fill="#DB9D25"/>
<path d="M491.297 -67.0368L496.816 -66.0015L419.164 136.86L413.645 135.825L491.297 -67.0368Z" fill="#DB9D25"/>
<path d="M502.336 -64.9663L507.855 -63.931L430.203 138.93L424.684 137.895L502.336 -64.9663Z" fill="#DB9D25"/>
<path d="M513.375 -62.8957L518.895 -61.8604L441.242 141.001L435.723 139.966L513.375 -62.8957Z" fill="#DB9D25"/>
<path d="M524.414 -60.8252L529.934 -59.7899L452.282 143.072L446.762 142.036L524.414 -60.8252Z" fill="#DB9D25"/>
<path d="M535.453 -58.7546L540.973 -57.7193L463.321 145.142L457.801 144.107L535.453 -58.7546Z" fill="#DB9D25"/>
<path d="M546.493 -56.6841L552.012 -55.6488L474.36 147.213L468.84 146.177L546.493 -56.6841Z" fill="#DB9D25"/>
<path d="M557.532 -54.6135L563.051 -53.5782L485.399 149.283L479.879 148.248L557.532 -54.6135Z" fill="#DB9D25"/>
<path d="M568.571 -52.543L574.09 -51.5077L496.438 151.354L490.919 150.318L568.571 -52.543Z" fill="#DB9D25"/>
<path d="M579.61 -50.4724L585.13 -49.4371L507.477 153.424L501.958 152.389L579.61 -50.4724Z" fill="#DB9D25"/>
<path d="M590.649 -48.4019L596.169 -47.3666L518.517 155.495L512.997 154.46L590.649 -48.4019Z" fill="#DB9D25"/>
<path d="M601.688 -46.3313L607.208 -45.296L529.556 157.565L524.036 156.53L601.688 -46.3313Z" fill="#DB9D25"/>
<path d="M612.727 -44.2608L618.247 -43.2255L540.595 159.636L535.075 158.601L612.727 -44.2608Z" fill="#DB9D25"/>
<path d="M623.767 -42.1902L629.286 -41.1549L551.634 161.707L546.114 160.671L623.767 -42.1902Z" fill="#DB9D25"/>
<path d="M634.806 -40.1196L640.325 -39.0844L562.673 163.777L557.154 162.742L634.806 -40.1196Z" fill="#DB9D25"/>
<path d="M645.845 -38.0491L651.364 -37.0138L573.712 165.848L568.193 164.812L645.845 -38.0491Z" fill="#DB9D25"/>
<path d="M656.884 -35.9785L662.404 -34.9433L584.751 167.918L579.232 166.883L656.884 -35.9785Z" fill="#DB9D25"/>
<path d="M667.923 -33.908L673.443 -32.8727L595.791 169.989L590.271 168.953L667.923 -33.908Z" fill="#DB9D25"/>
<path d="M678.962 -31.8374L684.482 -30.8022L606.83 172.059L601.31 171.024L678.962 -31.8374Z" fill="#DB9D25"/>
<path d="M690.002 -29.7669L695.521 -28.7316L617.869 174.13L612.349 173.095L690.002 -29.7669Z" fill="#DB9D25"/>
<path d="M701.041 -27.6963L706.56 -26.6611L628.908 176.2L623.388 175.165L701.041 -27.6963Z" fill="#DB9D25"/>
<path d="M712.08 -25.6258L717.599 -24.5905L639.947 178.271L634.428 177.236L712.08 -25.6258Z" fill="#DB9D25"/>
<path d="M723.119 -23.5552L728.639 -22.52L650.986 180.341L645.467 179.306L723.119 -23.5552Z" fill="#DB9D25"/>
<path d="M734.158 -21.4847L739.678 -20.4494L662.026 182.412L656.506 181.377L734.158 -21.4847Z" fill="#DB9D25"/>
<path d="M745.197 -19.4141L750.717 -18.3788L673.065 184.483L667.545 183.447L745.197 -19.4141Z" fill="#DB9D25"/>
<path d="M756.236 -17.3436L761.756 -16.3083L684.104 186.553L678.584 185.518L756.236 -17.3436Z" fill="#DB9D25"/>
<path d="M767.276 -15.273L772.795 -14.2377L695.143 188.624L689.623 187.588L767.276 -15.273Z" fill="#DB9D25"/>
<path d="M778.315 -13.2025L783.834 -12.1672L706.182 190.694L700.663 189.659L778.315 -13.2025Z" fill="#DB9D25"/>
<path d="M789.354 -11.1319L794.873 -10.0966L717.221 192.765L711.702 191.73L789.354 -11.1319Z" fill="#DB9D25"/>
<path d="M800.393 -9.06136L805.913 -8.02609L728.26 194.835L722.741 193.8L800.393 -9.06136Z" fill="#DB9D25"/>
<path d="M811.432 -6.99081L816.952 -5.95553L739.3 196.906L733.78 195.871L811.432 -6.99081Z" fill="#DB9D25"/>
<path d="M822.471 -4.92025L827.991 -3.88498L750.339 198.976L744.819 197.941L822.471 -4.92025Z" fill="#DB9D25"/>
<path d="M833.511 -2.8497L839.03 -1.81442L761.378 201.047L755.858 200.012L833.511 -2.8497Z" fill="#DB9D25"/>
</g>
</svg>
