<svg width="896" height="48" viewBox="0 0 896 48" fill="none" xmlns="http://www.w3.org/2000/svg">
<mask id="mask0" mask-type="alpha" maskUnits="userSpaceOnUse" x="0" y="0" width="896" height="48">
<rect width="896" height="48" fill="#FFC033"/>
</mask>
<g mask="url(#mask0)">
<path d="M30.9717 -120.333L37.1536 -119.471L-49.8169 49.5807L-55.9988 48.718L30.9717 -120.333Z" fill="#DB9D25"/>
<path d="M43.3355 -118.608L49.5175 -117.745L-37.453 51.3062L-43.635 50.4434L43.3355 -118.608Z" fill="#DB9D25"/>
<path d="M55.6994 -116.882L61.8813 -116.02L-25.0892 53.0316L-31.2711 52.1689L55.6994 -116.882Z" fill="#DB9D25"/>
<path d="M68.0632 -115.157L74.2452 -114.294L-12.7253 54.7571L-18.9073 53.8943L68.0632 -115.157Z" fill="#DB9D25"/>
<path d="M80.4271 -113.431L86.609 -112.569L-0.361487 56.4825L-6.54341 55.6198L80.4271 -113.431Z" fill="#DB9D25"/>
<path d="M92.7909 -111.706L98.9729 -110.843L12.0024 58.208L5.82044 57.3453L92.7909 -111.706Z" fill="#DB9D25"/>
<path d="M105.155 -109.98L111.337 -109.118L24.3662 59.9335L18.1843 59.0707L105.155 -109.98Z" fill="#DB9D25"/>
<path d="M117.519 -108.255L123.701 -107.392L36.7301 61.6589L30.5481 60.7962L117.519 -108.255Z" fill="#DB9D25"/>
<path d="M129.882 -106.53L136.064 -105.667L49.0939 63.3844L42.912 62.5216L129.882 -106.53Z" fill="#DB9D25"/>
<path d="M142.246 -104.804L148.428 -103.941L61.4578 65.1098L55.2758 64.2471L142.246 -104.804Z" fill="#DB9D25"/>
<path d="M154.61 -103.079L160.792 -102.216L73.8216 66.8353L67.6397 65.9726L154.61 -103.079Z" fill="#DB9D25"/>
<path d="M166.974 -101.353L173.156 -100.49L86.1855 68.5608L80.0036 67.698L166.974 -101.353Z" fill="#DB9D25"/>
<path d="M179.338 -99.6277L185.52 -98.765L98.5493 70.2862L92.3674 69.4235L179.338 -99.6277Z" fill="#DB9D25"/>
<path d="M191.702 -97.9023L197.884 -97.0395L110.913 72.0117L104.731 71.149L191.702 -97.9023Z" fill="#DB9D25"/>
<path d="M204.066 -96.1768L210.248 -95.3141L123.277 73.7371L117.095 72.8744L204.066 -96.1768Z" fill="#DB9D25"/>
<path d="M216.429 -94.4513L222.611 -93.5886L135.641 75.4626L129.459 74.5999L216.429 -94.4513Z" fill="#DB9D25"/>
<path d="M228.793 -92.7259L234.975 -91.8632L148.005 77.1881L141.823 76.3253L228.793 -92.7259Z" fill="#DB9D25"/>
<path d="M241.157 -91.0004L247.339 -90.1377L160.369 78.9135L154.187 78.0508L241.157 -91.0004Z" fill="#DB9D25"/>
<path d="M253.521 -89.275L259.703 -88.4122L172.732 80.639L166.551 79.7763L253.521 -89.275Z" fill="#DB9D25"/>
<path d="M265.885 -87.5495L272.067 -86.6868L185.096 82.3644L178.914 81.5017L265.885 -87.5495Z" fill="#DB9D25"/>
<path d="M278.249 -85.824L284.431 -84.9613L197.46 84.0899L191.278 83.2272L278.249 -85.824Z" fill="#DB9D25"/>
<path d="M290.613 -84.0986L296.794 -83.2359L209.824 85.8154L203.642 84.9526L290.613 -84.0986Z" fill="#DB9D25"/>
<path d="M302.976 -82.3731L309.158 -81.5104L222.188 87.5408L216.006 86.6781L302.976 -82.3731Z" fill="#DB9D25"/>
<path d="M315.34 -80.6477L321.522 -79.7849L234.552 89.2663L228.37 88.4036L315.34 -80.6477Z" fill="#DB9D25"/>
<path d="M327.704 -78.9222L333.886 -78.0595L246.916 90.9917L240.734 90.129L327.704 -78.9222Z" fill="#DB9D25"/>
<path d="M340.068 -77.1967L346.25 -76.334L259.279 92.7172L253.097 91.8545L340.068 -77.1967Z" fill="#DB9D25"/>
<path d="M352.432 -75.4713L358.614 -74.6085L271.643 94.4427L265.461 93.5799L352.432 -75.4713Z" fill="#DB9D25"/>
<path d="M364.796 -73.7458L370.978 -72.8831L284.007 96.1681L277.825 95.3054L364.796 -73.7458Z" fill="#DB9D25"/>
<path d="M377.16 -72.0204L383.341 -71.1576L296.371 97.8936L290.189 97.0309L377.16 -72.0204Z" fill="#DB9D25"/>
<path d="M389.523 -70.2949L395.705 -69.4322L308.735 99.619L302.553 98.7563L389.523 -70.2949Z" fill="#DB9D25"/>
<path d="M401.887 -68.5694L408.069 -67.7067L321.099 101.345L314.917 100.482L401.887 -68.5694Z" fill="#DB9D25"/>
<path d="M414.251 -66.844L420.433 -65.9812L333.463 103.07L327.281 102.207L414.251 -66.844Z" fill="#DB9D25"/>
<path d="M426.615 -65.1185L432.797 -64.2558L345.826 104.795L339.644 103.933L426.615 -65.1185Z" fill="#DB9D25"/>
<path d="M438.979 -63.3931L445.161 -62.5303L358.19 106.521L352.008 105.658L438.979 -63.3931Z" fill="#DB9D25"/>
<path d="M451.343 -61.6676L457.525 -60.8049L370.554 108.246L364.372 107.384L451.343 -61.6676Z" fill="#DB9D25"/>
<path d="M463.706 -59.9421L469.888 -59.0794L382.918 109.972L376.736 109.109L463.706 -59.9421Z" fill="#DB9D25"/>
<path d="M476.07 -58.2167L482.252 -57.3539L395.282 111.697L389.1 110.835L476.07 -58.2167Z" fill="#DB9D25"/>
<path d="M488.434 -56.4912L494.616 -55.6285L407.646 113.423L401.464 112.56L488.434 -56.4912Z" fill="#DB9D25"/>
<path d="M500.798 -54.7658L506.98 -53.903L420.009 115.148L413.828 114.285L500.798 -54.7658Z" fill="#DB9D25"/>
<path d="M513.162 -53.0403L519.344 -52.1776L432.373 116.874L426.191 116.011L513.162 -53.0403Z" fill="#DB9D25"/>
<path d="M525.526 -51.3148L531.708 -50.4521L444.737 118.599L438.555 117.736L525.526 -51.3148Z" fill="#DB9D25"/>
<path d="M537.89 -49.5894L544.071 -48.7266L457.101 120.325L450.919 119.462L537.89 -49.5894Z" fill="#DB9D25"/>
<path d="M550.253 -47.8639L556.435 -47.0012L469.465 122.05L463.283 121.187L550.253 -47.8639Z" fill="#DB9D25"/>
<path d="M562.617 -46.1385L568.799 -45.2757L481.829 123.775L475.647 122.913L562.617 -46.1385Z" fill="#DB9D25"/>
<path d="M574.981 -44.413L581.163 -43.5503L494.193 125.501L488.011 124.638L574.981 -44.413Z" fill="#DB9D25"/>
<path d="M587.345 -42.6875L593.527 -41.8248L506.556 127.226L500.374 126.364L587.345 -42.6875Z" fill="#DB9D25"/>
<path d="M599.709 -40.9621L605.891 -40.0993L518.92 128.952L512.738 128.089L599.709 -40.9621Z" fill="#DB9D25"/>
<path d="M612.073 -39.2366L618.255 -38.3739L531.284 130.677L525.102 129.815L612.073 -39.2366Z" fill="#DB9D25"/>
<path d="M624.437 -37.5112L630.618 -36.6484L543.648 132.403L537.466 131.54L624.437 -37.5112Z" fill="#DB9D25"/>
<path d="M636.8 -35.7857L642.982 -34.923L556.012 134.128L549.83 133.266L636.8 -35.7857Z" fill="#DB9D25"/>
<path d="M649.164 -34.0602L655.346 -33.1975L568.376 135.854L562.194 134.991L649.164 -34.0602Z" fill="#DB9D25"/>
<path d="M661.528 -32.3348L667.71 -31.472L580.74 137.579L574.558 136.716L661.528 -32.3348Z" fill="#DB9D25"/>
<path d="M673.892 -30.6093L680.074 -29.7466L593.103 139.305L586.921 138.442L673.892 -30.6093Z" fill="#DB9D25"/>
<path d="M686.256 -28.8838L692.438 -28.0211L605.467 141.03L599.285 140.167L686.256 -28.8838Z" fill="#DB9D25"/>
<path d="M698.62 -27.1584L704.802 -26.2957L617.831 142.756L611.649 141.893L698.62 -27.1584Z" fill="#DB9D25"/>
<path d="M710.984 -25.4329L717.165 -24.5702L630.195 144.481L624.013 143.618L710.984 -25.4329Z" fill="#DB9D25"/>
<path d="M723.347 -23.7075L729.529 -22.8447L642.559 146.206L636.377 145.344L723.347 -23.7075Z" fill="#DB9D25"/>
<path d="M735.711 -21.982L741.893 -21.1193L654.923 147.932L648.741 147.069L735.711 -21.982Z" fill="#DB9D25"/>
<path d="M748.075 -20.2565L754.257 -19.3938L667.286 149.657L661.105 148.795L748.075 -20.2565Z" fill="#DB9D25"/>
<path d="M760.439 -18.5311L766.621 -17.6684L679.65 151.383L673.468 150.52L760.439 -18.5311Z" fill="#DB9D25"/>
<path d="M772.803 -16.8056L778.985 -15.9429L692.014 153.108L685.832 152.246L772.803 -16.8056Z" fill="#DB9D25"/>
<path d="M785.167 -15.0802L791.349 -14.2174L704.378 154.834L698.196 153.971L785.167 -15.0802Z" fill="#DB9D25"/>
<path d="M797.53 -13.3547L803.712 -12.492L716.742 156.559L710.56 155.697L797.53 -13.3547Z" fill="#DB9D25"/>
<path d="M809.894 -11.6292L816.076 -10.7665L729.106 158.285L722.924 157.422L809.894 -11.6292Z" fill="#DB9D25"/>
<path d="M822.258 -9.90378L828.44 -9.04106L741.47 160.01L735.288 159.147L822.258 -9.90378Z" fill="#DB9D25"/>
<path d="M834.622 -8.17833L840.804 -7.31559L753.833 161.736L747.651 160.873L834.622 -8.17833Z" fill="#DB9D25"/>
<path d="M846.986 -6.45286L853.168 -5.59013L766.197 163.461L760.015 162.598L846.986 -6.45286Z" fill="#DB9D25"/>
<path d="M859.35 -4.72741L865.532 -3.86467L778.561 165.187L772.379 164.324L859.35 -4.72741Z" fill="#DB9D25"/>
<path d="M871.714 -3.00194L877.895 -2.13921L790.925 166.912L784.743 166.049L871.714 -3.00194Z" fill="#DB9D25"/>
<path d="M884.077 -1.27648L890.259 -0.413748L803.289 168.637L797.107 167.775L884.077 -1.27648Z" fill="#DB9D25"/>
<path d="M896.441 0.448981L902.623 1.31171L815.653 170.363L809.471 169.5L896.441 0.448981Z" fill="#DB9D25"/>
<path d="M908.805 2.17444L914.987 3.03717L828.017 172.088L821.835 171.226L908.805 2.17444Z" fill="#DB9D25"/>
<path d="M921.169 3.8999L927.351 4.76263L840.38 173.814L834.198 172.951L921.169 3.8999Z" fill="#DB9D25"/>
<path d="M933.533 5.62536L939.715 6.48809L852.744 175.539L846.562 174.677L933.533 5.62536Z" fill="#DB9D25"/>
</g>
</svg>
