<svg width="488" height="56" viewBox="0 0 488 56" fill="none" xmlns="http://www.w3.org/2000/svg">
<rect width="488" height="56" fill="#FFC033"/>
<mask id="mask0" mask-type="alpha" maskUnits="userSpaceOnUse" x="0" y="32" width="384" height="24">
<rect y="32" width="384" height="24" fill="#FFC033"/>
</mask>
<g mask="url(#mask0)">
<path d="M13.2731 -45L15.9225 -44.4824L-21.3506 56.9484L-24 56.4307L13.2731 -45Z" fill="#DB9D25"/>
<path d="M18.5719 -43.9647L21.2213 -43.4471L-16.0518 57.9836L-18.7012 57.466L18.5719 -43.9647Z" fill="#DB9D25"/>
<path d="M23.8707 -42.9294L26.5201 -42.4118L-10.753 59.0189L-13.4024 58.5013L23.8707 -42.9294Z" fill="#DB9D25"/>
<path d="M29.1694 -41.8942L31.8188 -41.3765L-5.45422 60.0542L-8.10362 59.5365L29.1694 -41.8942Z" fill="#DB9D25"/>
<path d="M34.4682 -40.8589L37.1176 -40.3413L-0.155425 61.0895L-2.80482 60.5718L34.4682 -40.8589Z" fill="#DB9D25"/>
<path d="M39.767 -39.8236L42.4164 -39.306L5.14337 62.1247L2.49397 61.6071L39.767 -39.8236Z" fill="#DB9D25"/>
<path d="M45.0658 -38.7883L47.7152 -38.2707L10.4422 63.16L7.79276 62.6424L45.0658 -38.7883Z" fill="#DB9D25"/>
<path d="M50.3646 -37.7531L53.014 -37.2354L15.741 64.1953L13.0916 63.6776L50.3646 -37.7531Z" fill="#DB9D25"/>
<path d="M55.6634 -36.7178L58.3128 -36.2002L21.0397 65.2306L18.3904 64.7129L55.6634 -36.7178Z" fill="#DB9D25"/>
<path d="M60.9622 -35.6825L63.6116 -35.1649L26.3385 66.2658L23.6891 65.7482L60.9622 -35.6825Z" fill="#DB9D25"/>
<path d="M66.261 -34.6472L68.9104 -34.1296L31.6373 67.3011L28.9879 66.7835L66.261 -34.6472Z" fill="#DB9D25"/>
<path d="M71.5598 -33.612L74.2092 -33.0943L36.9361 68.3364L34.2867 67.8188L71.5598 -33.612Z" fill="#DB9D25"/>
<path d="M76.8586 -32.5767L79.508 -32.059L42.2349 69.3717L39.5855 68.854L76.8586 -32.5767Z" fill="#DB9D25"/>
<path d="M82.1574 -31.5414L84.8068 -31.0238L47.5337 70.4069L44.8843 69.8893L82.1574 -31.5414Z" fill="#DB9D25"/>
<path d="M87.4562 -30.5061L90.1056 -29.9885L52.8325 71.4422L50.1831 70.9246L87.4562 -30.5061Z" fill="#DB9D25"/>
<path d="M92.755 -29.4709L95.4044 -28.9532L58.1313 72.4775L55.4819 71.9599L92.755 -29.4709Z" fill="#DB9D25"/>
<path d="M98.0538 -28.4356L100.703 -27.9179L63.4301 73.5128L60.7807 72.9951L98.0538 -28.4356Z" fill="#DB9D25"/>
<path d="M103.353 -27.4003L106.002 -26.8827L68.7289 74.548L66.0795 74.0304L103.353 -27.4003Z" fill="#DB9D25"/>
<path d="M108.651 -26.365L111.301 -25.8474L74.0277 75.5833L71.3783 75.0657L108.651 -26.365Z" fill="#DB9D25"/>
<path d="M113.95 -25.3298L116.6 -24.8121L79.3265 76.6186L76.6771 76.101L113.95 -25.3298Z" fill="#DB9D25"/>
<path d="M119.249 -24.2945L121.898 -23.7768L84.6253 77.6539L81.9759 77.1362L119.249 -24.2945Z" fill="#DB9D25"/>
<path d="M124.548 -23.2592L127.197 -22.7416L89.9241 78.6892L87.2747 78.1715L124.548 -23.2592Z" fill="#DB9D25"/>
<path d="M129.847 -22.2239L132.496 -21.7063L95.2229 79.7244L92.5735 79.2068L129.847 -22.2239Z" fill="#DB9D25"/>
<path d="M135.145 -21.1886L137.795 -20.671L100.522 80.7597L97.8722 80.2421L135.145 -21.1886Z" fill="#DB9D25"/>
<path d="M140.444 -20.1534L143.093 -19.6357L105.82 81.795L103.171 81.2773L140.444 -20.1534Z" fill="#DB9D25"/>
<path d="M145.743 -19.1181L148.392 -18.6005L111.119 82.8303L108.47 82.3126L145.743 -19.1181Z" fill="#DB9D25"/>
<path d="M151.042 -18.0828L153.691 -17.5652L116.418 83.8655L113.769 83.3479L151.042 -18.0828Z" fill="#DB9D25"/>
<path d="M156.34 -17.0475L158.99 -16.5299L121.717 84.9008L119.067 84.3832L156.34 -17.0475Z" fill="#DB9D25"/>
<path d="M161.639 -16.0123L164.289 -15.4946L127.016 85.9361L124.366 85.4184L161.639 -16.0123Z" fill="#DB9D25"/>
<path d="M166.938 -14.977L169.587 -14.4594L132.314 86.9714L129.665 86.4537L166.938 -14.977Z" fill="#DB9D25"/>
<path d="M172.237 -13.9417L174.886 -13.4241L137.613 88.0066L134.964 87.489L172.237 -13.9417Z" fill="#DB9D25"/>
<path d="M177.536 -12.9064L180.185 -12.3888L142.912 89.0419L140.263 88.5243L177.536 -12.9064Z" fill="#DB9D25"/>
<path d="M182.834 -11.8712L185.484 -11.3535L148.211 90.0772L145.561 89.5596L182.834 -11.8712Z" fill="#DB9D25"/>
<path d="M188.133 -10.8359L190.783 -10.3182L153.51 91.1125L150.86 90.5948L188.133 -10.8359Z" fill="#DB9D25"/>
<path d="M193.432 -9.80061L196.081 -9.28297L158.808 92.1477L156.159 91.6301L193.432 -9.80061Z" fill="#DB9D25"/>
<path d="M198.731 -8.76533L201.38 -8.2477L164.107 93.183L161.458 92.6654L198.731 -8.76533Z" fill="#DB9D25"/>
<path d="M204.03 -7.73006L206.679 -7.21242L169.406 94.2183L166.757 93.7007L204.03 -7.73006Z" fill="#DB9D25"/>
<path d="M209.328 -6.69478L211.978 -6.17715L174.705 95.2536L172.055 94.7359L209.328 -6.69478Z" fill="#DB9D25"/>
<path d="M214.627 -5.65951L217.277 -5.14187L180.004 96.2888L177.354 95.7712L214.627 -5.65951Z" fill="#DB9D25"/>
<path d="M219.926 -4.62423L222.575 -4.10659L185.302 97.3241L182.653 96.8065L219.926 -4.62423Z" fill="#DB9D25"/>
<path d="M225.225 -3.58895L227.874 -3.07132L190.601 98.3594L187.952 97.8418L225.225 -3.58895Z" fill="#DB9D25"/>
<path d="M230.524 -2.55368L233.173 -2.03604L195.9 99.3947L193.251 98.877L230.524 -2.55368Z" fill="#DB9D25"/>
<path d="M235.822 -1.5184L238.472 -1.00076L201.199 100.43L198.549 99.9123L235.822 -1.5184Z" fill="#DB9D25"/>
<path d="M241.121 -0.483124L243.771 0.0345115L206.497 101.465L203.848 100.948L241.121 -0.483124Z" fill="#DB9D25"/>
<path d="M246.42 0.55215L249.069 1.06979L211.796 102.501L209.147 101.983L246.42 0.55215Z" fill="#DB9D25"/>
<path d="M251.719 1.58743L254.368 2.10507L217.095 103.536L214.446 103.018L251.719 1.58743Z" fill="#DB9D25"/>
<path d="M257.018 2.6227L259.667 3.14034L222.394 104.571L219.744 104.053L257.018 2.6227Z" fill="#DB9D25"/>
<path d="M262.316 3.65798L264.966 4.17562L227.693 105.606L225.043 105.089L262.316 3.65798Z" fill="#DB9D25"/>
<path d="M267.615 4.69325L270.265 5.21089L232.991 106.642L230.342 106.124L267.615 4.69325Z" fill="#DB9D25"/>
<path d="M272.914 5.72853L275.563 6.24617L238.29 107.677L235.641 107.159L272.914 5.72853Z" fill="#DB9D25"/>
<path d="M278.213 6.76381L280.862 7.28145L243.589 108.712L240.94 108.195L278.213 6.76381Z" fill="#DB9D25"/>
<path d="M283.512 7.79908L286.161 8.31672L248.888 109.747L246.238 109.23L283.512 7.79908Z" fill="#DB9D25"/>
<path d="M288.81 8.83436L291.46 9.352L254.187 110.783L251.537 110.265L288.81 8.83436Z" fill="#DB9D25"/>
<path d="M294.109 9.86964L296.759 10.3873L259.485 111.818L256.836 111.3L294.109 9.86964Z" fill="#DB9D25"/>
<path d="M299.408 10.9049L302.057 11.4225L264.784 112.853L262.135 112.336L299.408 10.9049Z" fill="#DB9D25"/>
<path d="M304.707 11.9402L307.356 12.4578L270.083 113.889L267.434 113.371L304.707 11.9402Z" fill="#DB9D25"/>
<path d="M310.005 12.9755L312.655 13.4931L275.382 114.924L272.732 114.406L310.005 12.9755Z" fill="#DB9D25"/>
<path d="M315.304 14.0107L317.954 14.5284L280.681 115.959L278.031 115.441L315.304 14.0107Z" fill="#DB9D25"/>
<path d="M320.603 15.046L323.252 15.5637L285.979 116.994L283.33 116.477L320.603 15.046Z" fill="#DB9D25"/>
<path d="M325.902 16.0813L328.551 16.5989L291.278 118.03L288.629 117.512L325.902 16.0813Z" fill="#DB9D25"/>
<path d="M331.201 17.1166L333.85 17.6342L296.577 119.065L293.928 118.547L331.201 17.1166Z" fill="#DB9D25"/>
<path d="M336.499 18.1518L339.149 18.6695L301.876 120.1L299.226 119.583L336.499 18.1518Z" fill="#DB9D25"/>
<path d="M341.798 19.1871L344.448 19.7048L307.175 121.135L304.525 120.618L341.798 19.1871Z" fill="#DB9D25"/>
<path d="M347.097 20.2224L349.746 20.74L312.473 122.171L309.824 121.653L347.097 20.2224Z" fill="#DB9D25"/>
<path d="M352.396 21.2577L355.045 21.7753L317.772 123.206L315.123 122.688L352.396 21.2577Z" fill="#DB9D25"/>
<path d="M357.695 22.293L360.344 22.8106L323.071 124.241L320.422 123.724L357.695 22.293Z" fill="#DB9D25"/>
<path d="M362.993 23.3282L365.643 23.8459L328.37 125.277L325.72 124.759L362.993 23.3282Z" fill="#DB9D25"/>
<path d="M368.292 24.3635L370.942 24.8811L333.669 126.312L331.019 125.794L368.292 24.3635Z" fill="#DB9D25"/>
<path d="M373.591 25.3988L376.24 25.9164L338.967 127.347L336.318 126.829L373.591 25.3988Z" fill="#DB9D25"/>
<path d="M378.89 26.4341L381.539 26.9517L344.266 128.382L341.617 127.865L378.89 26.4341Z" fill="#DB9D25"/>
<path d="M384.189 27.4693L386.838 27.987L349.565 129.418L346.916 128.9L384.189 27.4693Z" fill="#DB9D25"/>
<path d="M389.487 28.5046L392.137 29.0222L354.864 130.453L352.214 129.935L389.487 28.5046Z" fill="#DB9D25"/>
<path d="M394.786 29.5399L397.436 30.0575L360.163 131.488L357.513 130.971L394.786 29.5399Z" fill="#DB9D25"/>
<path d="M400.085 30.5752L402.734 31.0928L365.461 132.524L362.812 132.006L400.085 30.5752Z" fill="#DB9D25"/>
</g>
</svg>
