<svg width="24" height="24" viewBox="0 0 24 24" fill="none" xmlns="http://www.w3.org/2000/svg">
<path d="M13.83 4.99997C13.6806 4.99946 13.533 5.03243 13.3981 5.09646C13.2631 5.16049 13.1442 5.25395 13.05 5.36997L8.22004 11.37C8.07296 11.5489 7.99255 11.7733 7.99255 12.005C7.99255 12.2366 8.07296 12.461 8.22004 12.64L13.22 18.64C13.3898 18.8442 13.6337 18.9726 13.8981 18.997C14.1625 19.0214 14.4258 18.9397 14.63 18.77C14.8343 18.6002 14.9627 18.3563 14.9871 18.0919C15.0114 17.8275 14.9298 17.5642 14.76 17.36L10.29 12L14.61 6.63997C14.7323 6.49318 14.81 6.31444 14.8339 6.12489C14.8578 5.93535 14.8268 5.74292 14.7448 5.57039C14.6627 5.39787 14.533 5.25245 14.3709 5.15136C14.2088 5.05027 14.0211 4.99774 13.83 4.99997Z" fill="black"/>
</svg>
