<svg width="24" height="24" viewBox="0 0 24 24" fill="none" xmlns="http://www.w3.org/2000/svg">
<path d="M9.15372 4.99997C9.30312 4.99946 9.45073 5.03243 9.58571 5.09646C9.72069 5.16049 9.8396 5.25395 9.93372 5.36997L14.7637 11.37C14.9108 11.5489 14.9912 11.7733 14.9912 12.005C14.9912 12.2366 14.9108 12.461 14.7637 12.64L9.76372 18.64C9.59398 18.8442 9.35007 18.9726 9.08565 18.997C8.82122 19.0214 8.55794 18.9397 8.35372 18.77C8.14951 18.6002 8.02108 18.3563 7.9967 18.0919C7.97232 17.8275 8.05398 17.5642 8.22372 17.36L12.6937 12L8.37372 6.63997C8.25144 6.49318 8.17376 6.31444 8.14988 6.12489C8.126 5.93535 8.15692 5.74292 8.23898 5.57039C8.32103 5.39787 8.45079 5.25245 8.6129 5.15136C8.77501 5.05027 8.96269 4.99774 9.15372 4.99997Z" fill="black"/>
</svg>
