<svg width="32" height="32" viewBox="0 0 32 32" fill="none" xmlns="http://www.w3.org/2000/svg">
<circle cx="16" cy="16" r="15.5" stroke="#0D1012"/>
<path d="M15.9978 11.8952C13.7264 11.8952 11.8932 13.7285 11.8932 16C11.8932 18.2715 13.7264 20.1048 15.9978 20.1048C18.2693 20.1048 20.1025 18.2715 20.1025 16C20.1025 13.7285 18.2693 11.8952 15.9978 11.8952ZM15.9978 18.6678C14.5289 18.6678 13.3301 17.469 13.3301 16C13.3301 14.531 14.5289 13.3322 15.9978 13.3322C17.4668 13.3322 18.6656 14.531 18.6656 16C18.6656 17.469 17.4668 18.6678 15.9978 18.6678ZM20.2707 10.7705C19.7403 10.7705 19.312 11.1988 19.312 11.7291C19.312 12.2595 19.7403 12.6878 20.2707 12.6878C20.801 12.6878 21.2293 12.2615 21.2293 11.7291C21.2294 11.6032 21.2048 11.4784 21.1566 11.3621C21.1085 11.2457 21.0379 11.1399 20.9489 11.0509C20.8598 10.9618 20.7541 10.8912 20.6377 10.8431C20.5213 10.795 20.3966 10.7703 20.2707 10.7705ZM23.9991 16C23.9991 14.8953 24.0091 13.8005 23.9471 12.6978C23.885 11.4169 23.5928 10.2801 22.6562 9.3435C21.7176 8.40487 20.5829 8.11467 19.302 8.05263C18.1973 7.99059 17.1026 8.0006 15.9998 8.0006C14.8951 8.0006 13.8004 7.99059 12.6977 8.05263C11.4168 8.11467 10.2801 8.40687 9.34348 9.3435C8.40486 10.2821 8.11467 11.4169 8.05263 12.6978C7.99059 13.8025 8.0006 14.8973 8.0006 16C8.0006 17.1027 7.99059 18.1995 8.05263 19.3022C8.11467 20.5831 8.40686 21.7199 9.34348 22.6565C10.2821 23.5951 11.4168 23.8853 12.6977 23.9474C13.8024 24.0094 14.8971 23.9994 15.9998 23.9994C17.1046 23.9994 18.1993 24.0094 19.302 23.9474C20.5829 23.8853 21.7196 23.5931 22.6562 22.6565C23.5948 21.7179 23.885 20.5831 23.9471 19.3022C24.0111 18.1995 23.9991 17.1047 23.9991 16ZM22.2379 20.7192C22.0919 21.0834 21.9157 21.3556 21.6336 21.6358C21.3514 21.918 21.0812 22.0941 20.7169 22.2402C19.6643 22.6585 17.1646 22.5644 15.9978 22.5644C14.8311 22.5644 12.3294 22.6585 11.2767 22.2422C10.9125 22.0961 10.6403 21.92 10.3601 21.6378C10.078 21.3556 9.90184 21.0854 9.75575 20.7212C9.33948 19.6665 9.43354 17.1668 9.43354 16C9.43354 14.8332 9.33948 12.3315 9.75575 11.2788C9.90184 10.9146 10.078 10.6424 10.3601 10.3622C10.6423 10.082 10.9125 9.90388 11.2767 9.75778C12.3294 9.3415 14.8311 9.43556 15.9978 9.43556C17.1646 9.43556 19.6663 9.3415 20.719 9.75778C21.0832 9.90388 21.3554 10.08 21.6356 10.3622C21.9177 10.6444 22.0939 10.9146 22.24 11.2788C22.6562 12.3315 22.5622 14.8332 22.5622 16C22.5622 17.1668 22.6562 19.6665 22.2379 20.7192Z" fill="#0D1012"/>
</svg>
