<svg width="32" height="32" viewBox="0 0 32 32" fill="none" xmlns="http://www.w3.org/2000/svg">
<path d="M3.78087 24.7022C2.03001 22.2481 1 19.2444 1 16C1 7.71573 7.71573 1 16 1C24.2843 1 31 7.71573 31 16C31 24.2843 24.2843 31 16 31C12.7647 31 9.76869 29.9758 7.31845 28.2338" stroke="#0D1012" stroke-linejoin="round"/>
<path d="M4 24.5L2 30L7.5 28" stroke="black" stroke-linejoin="round"/>
<path fill-rule="evenodd" clip-rule="evenodd" d="M22.8735 18.9775C22.4991 18.7904 20.6655 17.8928 20.3228 17.7686C19.9817 17.6444 19.7337 17.5832 19.4842 17.9541C19.2346 18.325 18.5191 19.1613 18.3011 19.4097C18.0832 19.6581 17.8652 19.6879 17.4925 19.5024C17.1198 19.317 15.9168 18.9245 14.4908 17.6593C13.381 16.674 12.6323 15.4585 12.4143 15.0859C12.1963 14.7133 12.391 14.5129 12.579 14.3275C12.7471 14.1619 12.9517 13.8936 13.1381 13.6767C13.3244 13.4597 13.386 13.3057 13.5108 13.0573C13.6356 12.8089 13.574 12.592 13.4792 12.4065C13.386 12.2194 12.6389 10.3912 12.3278 9.64764C12.0266 8.92728 11.7188 9.02333 11.4892 9.01339C11.2514 9.00371 11.0134 8.99929 10.7754 9.00014C10.5861 9.00494 10.3999 9.04861 10.2284 9.1284C10.0569 9.20819 9.90377 9.32238 9.77869 9.46382C9.43593 9.83642 8.47253 10.734 8.47253 12.5622C8.47253 14.3904 9.8103 16.1573 9.99666 16.4057C10.183 16.6541 12.6289 20.405 16.3727 22.0146C17.2645 22.3971 17.96 22.6256 18.5008 22.7979C19.3943 23.081 20.208 23.0396 20.8519 22.9453C21.569 22.8393 23.0599 22.0477 23.371 21.18C23.6822 20.3122 23.6822 19.5687 23.589 19.413C23.4958 19.2574 23.2445 19.163 22.8735 18.9775Z" fill="black"/>
</svg>
