<svg width="32" height="32" viewBox="0 0 32 32" fill="none" xmlns="http://www.w3.org/2000/svg">
<circle cx="16" cy="16" r="15.5" stroke="#0D1012"/>
<path d="M25 10.663C24.3381 10.9364 23.6177 11.1331 22.8757 11.2098C23.6461 10.7716 24.223 10.0794 24.4981 9.26303C23.7753 9.67472 22.9834 9.96341 22.1576 10.1163C21.8124 9.76302 21.395 9.4816 20.9312 9.28955C20.4675 9.0975 19.9675 8.99894 19.4622 9.00001C17.418 9.00001 15.7739 10.5864 15.7739 12.5331C15.7739 12.8065 15.8086 13.0799 15.8648 13.3429C12.8039 13.1897 10.0739 11.7897 8.25898 9.64616C7.92828 10.1869 7.75499 10.8027 7.75712 11.4293C7.75712 12.6553 8.40824 13.7364 9.40115 14.3722C8.81602 14.3501 8.24458 14.1962 7.73333 13.9228V13.9663C7.73333 15.6831 9.00096 17.1059 10.6904 17.4331C10.3732 17.512 10.0469 17.5524 9.71914 17.5533C9.47903 17.5533 9.25189 17.5305 9.02259 17.4994C9.48984 18.8994 10.8505 19.9163 12.4707 19.9494C11.2031 20.9 9.61531 21.4592 7.89124 21.4592C7.5819 21.4592 7.29636 21.4488 7 21.4157C8.63538 22.4201 10.5758 23 12.6654 23C19.4492 23 23.1613 17.6195 23.1613 12.9494C23.1613 12.7962 23.1613 12.6429 23.1505 12.4897C23.8686 11.9864 24.4981 11.363 25 10.663Z" fill="#0D1012"/>
</svg>
