<svg width="24" height="24" viewBox="0 0 24 24" fill="none" xmlns="http://www.w3.org/2000/svg">
<path fill-rule="evenodd" clip-rule="evenodd" d="M11.5755 5.325C11.7026 5.38621 11.8098 5.48201 11.8849 5.60141C11.96 5.7208 11.9999 5.85895 12 6V18C11.9998 18.1411 11.9598 18.2793 11.8846 18.3987C11.8093 18.5181 11.7019 18.6139 11.5747 18.675C11.4475 18.7361 11.3056 18.7601 11.1654 18.7441C11.0252 18.7282 10.8923 18.6731 10.782 18.585L7.2375 15.75H3.75C3.55109 15.75 3.36032 15.671 3.21967 15.5303C3.07902 15.3897 3 15.1989 3 15V9C3 8.80108 3.07902 8.61032 3.21967 8.46967C3.36032 8.32901 3.55109 8.25 3.75 8.25H7.2375L10.782 5.415C10.8924 5.32678 11.0254 5.27153 11.1658 5.2556C11.3062 5.23968 11.4482 5.26373 11.5755 5.325Z" fill="black"/>
<path d="M15.7834 8.37125C15.6163 8.16438 15.3739 8.03236 15.1095 8.00423C14.845 7.97609 14.5803 8.05416 14.3734 8.22125C14.1665 8.38833 14.0345 8.63075 14.0064 8.89518C13.9783 9.15961 14.0563 9.42438 14.2234 9.63125C14.7286 10.3182 15.0011 11.1485 15.0011 12.0012C15.0011 12.8539 14.7286 13.6843 14.2234 14.3712C14.1042 14.5182 14.0291 14.696 14.0069 14.8839C13.9847 15.0718 14.0163 15.2622 14.098 15.4329C14.1796 15.6036 14.3081 15.7476 14.4684 15.8482C14.6286 15.9488 14.8142 16.0019 15.0034 16.0012C15.1528 16.0018 15.3004 15.9688 15.4354 15.9048C15.5704 15.8407 15.6893 15.7473 15.7834 15.6312C16.5766 14.5873 17.0061 13.3123 17.0061 12.0012C17.0061 10.6902 16.5766 9.41516 15.7834 8.37125Z" fill="black"/>
<path d="M17.6418 5.23125C17.5406 5.1472 17.424 5.0839 17.2984 5.04494C17.1728 5.00599 17.0408 4.99216 16.9098 5.00423C16.7789 5.0163 16.6516 5.05404 16.5353 5.1153C16.4189 5.17656 16.3158 5.26013 16.2318 5.36125C16.1477 5.46237 16.0844 5.57905 16.0455 5.70463C16.0065 5.83022 15.9927 5.96224 16.0047 6.09317C16.0168 6.2241 16.0546 6.35137 16.1158 6.46772C16.1771 6.58406 16.2606 6.6872 16.3618 6.77125C17.1638 7.39112 17.8171 8.18246 18.2739 9.08736C18.7307 9.99227 18.9793 10.9878 19.0018 12.0012C18.9793 13.0147 18.7307 14.0102 18.2739 14.9151C17.8171 15.82 17.1638 16.6114 16.3618 17.2312C16.2605 17.3152 16.1768 17.4183 16.1154 17.5346C16.0541 17.651 16.0163 17.7783 16.0042 17.9093C15.9921 18.0403 16.006 18.1723 16.0451 18.2979C16.0841 18.4235 16.1476 18.5402 16.2318 18.6412C16.3258 18.7541 16.4435 18.8449 16.5766 18.9071C16.7097 18.9694 16.8549 19.0015 17.0018 19.0013C17.2354 19.0017 17.4618 18.9203 17.6418 18.7713C18.6722 17.9657 19.5089 16.9393 20.0904 15.7677C20.6719 14.5961 20.9833 13.3091 21.0018 12.0012C20.9833 10.6934 20.6719 9.40636 20.0904 8.23476C19.5089 7.06316 18.6722 6.03682 17.6418 5.23125Z" fill="black"/>
</svg>
