<svg width="24" height="24" viewBox="0 0 24 24" fill="none" xmlns="http://www.w3.org/2000/svg">
<path fill-rule="evenodd" clip-rule="evenodd" d="M11.5755 5.325C11.7026 5.38621 11.8098 5.48201 11.8849 5.60141C11.96 5.7208 11.9999 5.85895 12 6V18C11.9998 18.1411 11.9598 18.2793 11.8846 18.3987C11.8093 18.5181 11.7019 18.6139 11.5747 18.675C11.4475 18.7361 11.3056 18.7601 11.1654 18.7441C11.0252 18.7282 10.8923 18.6731 10.782 18.585L7.2375 15.75H3.75C3.55109 15.75 3.36032 15.671 3.21967 15.5303C3.07902 15.3897 3 15.1989 3 15V9C3 8.80108 3.07902 8.61032 3.21967 8.46967C3.36032 8.32901 3.55109 8.25 3.75 8.25H7.2375L10.782 5.415C10.8924 5.32678 11.0254 5.27153 11.1658 5.2556C11.3062 5.23968 11.4482 5.26373 11.5755 5.325Z" fill="black"/>
<path d="M15.7834 8.37125C15.6163 8.16438 15.3739 8.03236 15.1095 8.00423C14.845 7.97609 14.5803 8.05416 14.3734 8.22125C14.1665 8.38833 14.0345 8.63075 14.0064 8.89518C13.9783 9.15961 14.0563 9.42438 14.2234 9.63125C14.7286 10.3182 15.0011 11.1485 15.0011 12.0012C15.0011 12.8539 14.7286 13.6843 14.2234 14.3712C14.1042 14.5182 14.0291 14.696 14.0069 14.8839C13.9847 15.0718 14.0163 15.2622 14.098 15.4329C14.1796 15.6036 14.3081 15.7476 14.4684 15.8482C14.6286 15.9488 14.8142 16.0019 15.0034 16.0012C15.1528 16.0018 15.3004 15.9688 15.4354 15.9048C15.5704 15.8407 15.6893 15.7473 15.7834 15.6312C16.5766 14.5873 17.0061 13.3123 17.0061 12.0012C17.0061 10.6902 16.5766 9.41516 15.7834 8.37125Z" fill="black"/>
</svg>
