<svg width="24" height="24" viewBox="0 0 24 24" fill="none" xmlns="http://www.w3.org/2000/svg">
<path fill-rule="evenodd" clip-rule="evenodd" d="M10.5755 5.325C10.7026 5.38621 10.8098 5.48201 10.8849 5.60141C10.96 5.7208 10.9999 5.85895 11 6V18C10.9998 18.1411 10.9598 18.2793 10.8846 18.3987C10.8093 18.5181 10.7019 18.6139 10.5747 18.675C10.4475 18.7361 10.3056 18.7601 10.1654 18.7441C10.0252 18.7282 9.89228 18.6731 9.782 18.585L6.2375 15.75H2.75C2.55109 15.75 2.36032 15.671 2.21967 15.5303C2.07902 15.3897 2 15.1989 2 15V9C2 8.80108 2.07902 8.61032 2.21967 8.46967C2.36032 8.32901 2.55109 8.25 2.75 8.25H6.2375L9.782 5.415C9.89236 5.32678 10.0254 5.27153 10.1658 5.2556C10.3062 5.23968 10.4482 5.26373 10.5755 5.325ZM21.281 8.469C21.3508 8.53866 21.4063 8.62143 21.4441 8.71255C21.4819 8.80366 21.5013 8.90134 21.5013 9C21.5013 9.09865 21.4819 9.19633 21.4441 9.28745C21.4063 9.37856 21.3508 9.46133 21.281 9.531L15.281 15.531C15.1402 15.6718 14.9492 15.7509 14.75 15.7509C14.5508 15.7509 14.3598 15.6718 14.219 15.531C14.0782 15.3902 13.9991 15.1992 13.9991 15C13.9991 14.8008 14.0782 14.6098 14.219 14.469L20.219 8.469C20.2887 8.39915 20.3714 8.34374 20.4626 8.30593C20.5537 8.26812 20.6513 8.24866 20.75 8.24866C20.8487 8.24866 20.9463 8.26812 21.0374 8.30593C21.1286 8.34374 21.2113 8.39915 21.281 8.469Z" fill="black"/>
<path fill-rule="evenodd" clip-rule="evenodd" d="M14.2191 8.469C14.1493 8.53867 14.0939 8.62143 14.0561 8.71255C14.0182 8.80366 13.9988 8.90135 13.9988 9C13.9988 9.09865 14.0182 9.19633 14.0561 9.28745C14.0939 9.37857 14.1493 9.46133 14.2191 9.531L20.2191 15.531C20.2889 15.6007 20.3716 15.656 20.4627 15.6938C20.5539 15.7315 20.6515 15.7509 20.7501 15.7509C20.8487 15.7509 20.9464 15.7315 21.0375 15.6938C21.1286 15.656 21.2114 15.6007 21.2811 15.531C21.3509 15.4613 21.4062 15.3785 21.4439 15.2874C21.4816 15.1963 21.5011 15.0986 21.5011 15C21.5011 14.9014 21.4816 14.8037 21.4439 14.7126C21.4062 14.6215 21.3509 14.5387 21.2811 14.469L15.2811 8.469C15.2115 8.39915 15.1287 8.34374 15.0376 8.30593C14.9465 8.26812 14.8488 8.24866 14.7501 8.24866C14.6515 8.24866 14.5538 8.26812 14.4627 8.30593C14.3716 8.34374 14.2888 8.39915 14.2191 8.469Z" fill="black"/>
</svg>
