<svg width="32" height="32" viewBox="0 0 32 32" fill="none" xmlns="http://www.w3.org/2000/svg">
<circle cx="16" cy="16" r="15.5" stroke="#0D1012"/>
<path d="M25.607 11.203C25.4931 10.7804 25.2705 10.395 24.9614 10.0852C24.6522 9.77534 24.2673 9.55187 23.845 9.43701C22.279 9.00701 16.014 9.00001 16.014 9.00001C16.014 9.00001 9.75 8.99301 8.183 9.40401C7.76093 9.52415 7.37682 9.75078 7.06757 10.0621C6.75831 10.3735 6.53429 10.7591 6.417 11.182C6.004 12.748 6 15.996 6 15.996C6 15.996 5.996 19.26 6.406 20.81C6.636 21.667 7.311 22.344 8.169 22.575C9.751 23.005 15.999 23.012 15.999 23.012C15.999 23.012 22.264 23.019 23.83 22.609C24.2525 22.4943 24.6377 22.2714 24.9477 21.9622C25.2576 21.653 25.4814 21.2682 25.597 20.846C26.011 19.281 26.014 16.034 26.014 16.034C26.014 16.034 26.034 12.769 25.607 11.203ZM14.01 19.005L14.015 13.005L19.222 16.01L14.01 19.005Z" fill="#0D1012"/>
</svg>
