<svg width="360" height="340" viewBox="0 0 360 340" fill="none" xmlns="http://www.w3.org/2000/svg">
<circle cx="180" cy="192" r="148" fill="white"/>
<g clip-path="url(#clip0)">
<path d="M206.51 164.117L208.348 184.843C208.348 184.843 214.836 181.426 214.379 173.51C213.923 165.7 206.51 164.117 206.51 164.117Z" fill="#010202"/>
<path d="M175.659 163.665L173.821 184.39C173.821 184.39 167.334 180.974 167.79 173.058C168.247 165.248 175.659 163.665 175.659 163.665Z" fill="#010202"/>
<path d="M239.416 318.266C234.358 297.088 215.172 281.327 192.262 281.327C169.352 281.327 150.166 297.088 145.108 318.266H239.416Z" fill="#E94E1B"/>
<path d="M178.326 173.153C178.326 175.664 176.272 177.7 173.737 177.7C171.202 177.7 169.136 175.664 169.136 173.153C169.136 170.641 171.19 168.593 173.737 168.593C176.272 168.593 178.326 170.629 178.326 173.153Z" fill="#F5AC9F"/>
<path d="M176.644 173.153C176.644 174.748 175.335 176.045 173.725 176.045C172.115 176.045 170.806 174.748 170.806 173.153C170.806 171.558 172.115 170.26 173.725 170.26C175.347 170.26 176.644 171.546 176.644 173.153Z" fill="#F2908E"/>
<path d="M212.914 173.153C212.914 175.664 210.86 177.7 208.325 177.7C205.79 177.7 203.735 175.664 203.735 173.153C203.735 170.641 205.79 168.593 208.325 168.593C210.86 168.593 212.914 170.629 212.914 173.153Z" fill="#F5AC9F"/>
<path d="M211.244 173.153C211.244 174.748 209.934 176.045 208.325 176.045C206.715 176.045 205.405 174.748 205.405 173.153C205.405 171.558 206.715 170.26 208.325 170.26C209.934 170.26 211.244 171.546 211.244 173.153Z" fill="#F2908E"/>
<path d="M208.324 215.223C208.324 224.591 200.575 232.174 191.024 232.174C181.473 232.174 173.725 224.579 173.725 215.223V185.486C173.725 176.117 181.473 168.534 191.024 168.534C200.575 168.534 208.324 176.129 208.324 185.486V215.223Z" fill="#F5AC9F"/>
<path d="M208.324 188.212C208.324 197.58 200.575 205.163 191.024 205.163C181.473 205.163 173.725 197.568 173.725 188.212V166.796C173.725 157.427 181.473 149.844 191.024 149.844C200.575 149.844 208.324 157.439 208.324 166.796V188.212Z" fill="#F2908E"/>
<path d="M208.324 182.795C208.324 191.521 200.575 198.592 191.024 198.592C181.473 198.592 173.725 191.521 173.725 182.795V162.844C173.725 154.118 181.473 147.047 191.024 147.047C200.575 147.047 208.324 154.118 208.324 162.844V182.795Z" fill="#F5AC9F"/>
<path d="M182.038 155.963L169.748 172.843C169.748 172.843 165.94 166.617 170.421 160.046C174.842 153.57 182.038 155.963 182.038 155.963Z" fill="#010202"/>
<path d="M190.376 151.642L178.098 168.522C178.098 168.522 174.29 162.296 178.771 155.725C183.18 149.249 190.376 151.642 190.376 151.642Z" fill="#010202"/>
<path d="M197.933 149.427L185.655 166.308C185.655 166.308 181.846 160.082 186.327 153.511C190.736 147.023 197.933 149.427 197.933 149.427Z" fill="#010202"/>
<path d="M203.759 148.975L191.481 165.855C191.481 165.855 187.673 159.629 192.154 153.058C196.563 146.57 203.759 148.975 203.759 148.975Z" fill="#010202"/>
<path d="M193.355 149.785L205.645 166.665C205.645 166.665 209.453 160.439 204.972 153.868C200.551 147.392 193.355 149.785 193.355 149.785Z" fill="#010202"/>
<path d="M199.915 153.582L212.193 170.462C212.193 170.462 216.001 164.236 211.52 157.665C207.111 151.189 199.915 153.582 199.915 153.582Z" fill="#010202"/>
<path d="M179.083 167.82C179.263 168.546 180.008 168.998 180.741 168.82L185.667 167.629C186.399 167.451 186.856 166.713 186.676 165.986C186.495 165.26 185.751 164.808 185.018 164.986L180.092 166.177C179.347 166.355 178.903 167.094 179.083 167.82Z" fill="#010202"/>
<path d="M203.603 167.76C203.399 168.486 202.642 168.903 201.909 168.701L197.031 167.332C196.299 167.129 195.878 166.379 196.082 165.653C196.287 164.939 197.043 164.51 197.776 164.725L202.654 166.094C203.399 166.284 203.819 167.034 203.603 167.76Z" fill="#010202"/>
<path d="M271.625 191.64C279.277 187.605 288.792 190.485 292.865 198.068C296.938 205.663 294.03 215.08 286.378 219.115L240.521 244.257C232.868 248.293 223.353 245.412 219.281 237.829L229.853 232.329C225.78 224.746 218.115 220.818 225.78 216.782L271.625 191.64Z" fill="#F9423E"/>
<path d="M250.846 202.937L243.194 207.231L258.723 234.4L266.375 230.106L250.846 202.937Z" fill="#DB9D25"/>
<path d="M239.26 318.266V220.258C239.26 217.472 236.989 215.222 234.178 215.222H147.884C145.072 215.222 142.802 217.472 142.802 220.258V318.266H239.26Z" fill="#F9423E"/>
<path d="M175.131 216.258H170.229V318.266H175.131V216.258Z" fill="#D62D38"/>
<path d="M201.02 171.224C201.02 172.093 200.311 172.796 199.434 172.796C198.557 172.796 197.849 172.093 197.849 171.224C197.849 170.355 198.557 169.653 199.434 169.653C200.311 169.653 201.02 170.355 201.02 171.224Z" fill="#010202"/>
<path d="M184.994 171.224C184.994 172.093 184.285 172.796 183.408 172.796C182.531 172.796 181.822 172.093 181.822 171.224C181.822 170.355 182.531 169.653 183.408 169.653C184.285 169.653 184.994 170.355 184.994 171.224Z" fill="#010202"/>
<path d="M215.185 162.546V150.344C215.185 137.928 205.033 127.869 192.503 127.869H190.46C177.93 127.869 167.778 137.928 167.778 150.344V162.558H215.185V162.546Z" fill="#E6332A"/>
<path d="M200.396 150.642C200.396 153.999 197.645 156.713 194.257 156.713H187.697C184.309 156.713 181.558 153.987 181.558 150.642V131.452C181.558 128.095 184.309 125.369 187.697 125.369H194.257C197.645 125.369 200.396 128.095 200.396 131.452V150.642Z" fill="#E6332A"/>
<path opacity="0.5" d="M198.87 149.094C198.87 151.915 196.563 154.189 193.728 154.189H188.225C185.39 154.189 183.083 151.904 183.083 149.094V133C183.083 130.19 185.39 127.905 188.225 127.905H193.728C196.563 127.905 198.87 130.19 198.87 133V149.094Z" fill="#E94E1B"/>
<path d="M215.184 162.546V150.344C215.184 145.392 213.562 140.821 210.823 137.106C210.583 137.904 210.451 138.737 210.451 139.618V162.558H215.184V162.546Z" fill="#D2CDE8"/>
<path d="M167.778 162.546V150.344C167.778 145.392 169.4 140.821 172.127 137.106C172.368 137.904 172.5 138.737 172.5 139.618V162.558H167.778V162.546Z" fill="#D2CDE8"/>
<path d="M216.854 160.332C216.854 161.82 216.109 163.022 215.184 163.022H167.766C166.841 163.022 166.096 161.82 166.096 160.332C166.096 158.844 166.841 157.641 167.766 157.641H215.184C216.097 157.641 216.854 158.844 216.854 160.332Z" fill="white"/>
<path d="M239.26 274.446H142.802V288.219H239.26V274.446Z" fill="#FFC033"/>
<path d="M194.076 177.498C194.076 179.164 192.707 180.521 191.025 180.521C189.343 180.521 187.973 179.164 187.973 177.498C187.973 175.831 189.343 174.474 191.025 174.474C192.707 174.474 194.076 175.831 194.076 177.498Z" fill="#F2908E"/>
<path d="M194.076 176.426C194.076 178.093 192.707 179.45 191.025 179.45C189.343 179.45 187.973 178.093 187.973 176.426C187.973 174.76 189.343 173.403 191.025 173.403C192.707 173.403 194.076 174.76 194.076 176.426Z" fill="#F5AC9F"/>
<path d="M201.08 183.093C201.08 187.783 196.779 191.592 191.481 191.592C186.183 191.592 181.882 187.783 181.882 183.093H201.08Z" fill="#AB293C"/>
<path d="M194.641 187.521C194.641 189.247 193.223 190.652 191.481 190.652C189.739 190.652 188.322 189.247 188.322 187.521C188.322 185.783 189.739 184.39 191.481 184.39C193.223 184.39 194.641 185.795 194.641 187.521Z" fill="#640714"/>
<path d="M183.228 183.093C183.228 183.105 183.228 183.117 183.228 183.128C183.228 184.545 184.393 185.7 185.823 185.7H197.681C199.11 185.7 200.275 184.545 200.275 183.128C200.275 183.117 200.275 183.105 200.275 183.093H183.228Z" fill="white"/>
<path d="M184.093 188.533C185.859 190.402 188.502 191.592 191.469 191.592C194.437 191.592 197.08 190.402 198.846 188.533H184.093Z" fill="white"/>
<path d="M210.283 205.163H170.229V216.258H210.283V205.163Z" fill="#D62D38"/>
<path d="M200.623 135.892C200.467 135.904 200.311 135.916 200.155 135.916C195.313 135.916 191.361 132.202 191.012 127.488C190.988 127.488 190.964 127.5 190.94 127.5C190.604 132.035 186.928 135.63 182.327 135.892C182.315 136.118 182.291 136.345 182.291 136.571C182.291 141.594 186.399 149.094 191.469 149.094C196.539 149.094 200.647 141.594 200.647 136.571C200.66 136.345 200.635 136.118 200.623 135.892Z" fill="white"/>
<path d="M288.348 147.511H272.79V163.665H288.348V147.511Z" fill="#F5AC9F"/>
<path d="M293.346 143.832C291.64 150.523 284.792 154.582 278.028 152.892C271.277 151.201 267.18 144.404 268.886 137.714C270.592 131.023 277.452 126.964 284.191 128.655C290.955 130.345 295.04 137.142 293.346 143.832Z" fill="#F5AC9F"/>
<path d="M286.522 129.464C286.173 130.857 284.744 131.69 283.338 131.345C281.933 130.988 281.08 129.583 281.44 128.19L285.777 111.167C286.125 109.774 287.555 108.941 288.961 109.286C290.366 109.643 291.219 111.048 290.859 112.441L286.522 129.464Z" fill="#F5AC9F"/>
<path d="M290.871 133.571C290.523 134.964 289.093 135.797 287.687 135.452C286.282 135.107 285.441 133.69 285.789 132.297L290.126 115.274C290.486 113.881 291.904 113.048 293.31 113.393C294.715 113.738 295.556 115.155 295.208 116.548L290.871 133.571Z" fill="#F5AC9F"/>
<path d="M293.598 142.844C293.25 144.237 291.82 145.082 290.414 144.725C289.009 144.38 288.156 142.963 288.516 141.571L292.853 124.547C293.214 123.155 294.631 122.309 296.037 122.667C297.442 123.012 298.283 124.428 297.935 125.821L293.598 142.844Z" fill="#F5AC9F"/>
<path d="M280.731 131.345C280.383 132.738 278.953 133.583 277.548 133.226C276.142 132.88 275.289 131.464 275.649 130.071L279.986 113.036C280.335 111.643 281.764 110.81 283.17 111.155C284.576 111.5 285.417 112.917 285.068 114.31L280.731 131.345Z" fill="#F5AC9F"/>
<path d="M275.445 141.428C275.962 143.237 274.905 145.13 273.078 145.642C271.252 146.154 269.342 145.106 268.826 143.297L265.173 130.607C264.657 128.797 265.714 126.904 267.54 126.393C269.366 125.869 271.276 126.928 271.793 128.738L275.445 141.428Z" fill="#F5AC9F"/>
<path d="M263.479 155.915L263.624 204.39C263.744 212.984 270.88 219.853 279.554 219.722C288.228 219.603 295.16 212.532 295.04 203.937L294.895 155.915H263.479Z" fill="#F9423E"/>
<path d="M295.028 173.105H263.479V181.819H295.028V173.105Z" fill="#FFC033"/>
<path d="M101.186 201.651C92.8365 199.33 84.1625 204.163 81.8199 212.437C79.4772 220.71 84.3548 229.305 92.7043 231.626L142.922 246.471C151.271 248.792 159.945 243.959 162.288 235.686L150.779 232.555C153.121 224.281 159.753 218.817 151.403 216.496L101.186 201.651Z" fill="#F9423E"/>
<path d="M123.91 208.285L114.607 238.117L123.009 240.69L132.311 210.857L123.91 208.285Z" fill="#DB9D25"/>
<path d="M90.5135 158.797L75.3167 162.095L78.8038 177.874L94.0006 174.577L90.5135 158.797Z" fill="#F5AC9F"/>
<path d="M69.6498 159.558C72.7613 165.736 80.33 168.236 86.5651 165.165C92.8003 162.082 95.3231 154.582 92.2116 148.404C89.1 142.226 81.5314 139.726 75.2962 142.797C69.0731 145.88 66.5382 153.38 69.6498 159.558Z" fill="#F5AC9F"/>
<path d="M73.2061 144.083C73.8548 145.368 75.4286 145.88 76.7141 145.249C78.0116 144.606 78.5402 143.047 77.8915 141.773L69.9744 126.059C69.3257 124.774 67.7519 124.262 66.4664 124.893C65.1689 125.536 64.6403 127.095 65.289 128.381L73.2061 144.083Z" fill="#F5AC9F"/>
<path d="M69.8421 149.023C70.4909 150.309 72.0647 150.82 73.3622 150.19C74.6596 149.547 75.1762 147.987 74.5395 146.714L66.6225 130.988C65.9737 129.702 64.3999 129.19 63.1144 129.821C61.817 130.464 61.3004 132.024 61.9371 133.297L69.8421 149.023Z" fill="#F5AC9F"/>
<path d="M69.1934 158.641C69.8421 159.927 71.4159 160.451 72.7014 159.808C73.9989 159.165 74.5275 157.606 73.8788 156.32L65.9617 140.606C65.313 139.321 63.7392 138.797 62.4537 139.44C61.1562 140.083 60.6276 141.63 61.2763 142.916L69.1934 158.641Z" fill="#F5AC9F"/>
<path d="M79.2729 144.69C79.9216 145.975 81.4954 146.499 82.7809 145.856C84.0783 145.214 84.607 143.654 83.9582 142.38L76.0412 126.667C75.3924 125.381 73.8186 124.869 72.5331 125.5C71.2357 126.143 70.7191 127.702 71.3558 128.976L79.2729 144.69Z" fill="#F5AC9F"/>
<path d="M86.6134 153.416C86.4933 155.297 87.935 156.916 89.8451 157.035C91.7433 157.154 93.3772 155.725 93.4973 153.844L94.3263 140.678C94.4464 138.797 93.0048 137.178 91.1066 137.059C89.2084 136.94 87.5745 138.369 87.4544 140.25L86.6134 153.416Z" fill="#F5AC9F"/>
<path d="M101.426 165.034L111.758 212.413C113.488 220.83 108.01 229.055 99.5161 230.77C91.0223 232.496 82.7209 227.056 80.9909 218.639L70.7432 171.701L101.426 165.034Z" fill="#F9423E"/>
<path d="M105.135 181.817L74.3223 188.529L76.2103 197.039L107.023 190.328L105.135 181.817Z" fill="#FFC033"/>
</g>
<rect y="301" width="360" height="39" fill="#FFC033"/>
<path d="M83.4459 294L76 300C76.7568 300.696 77.8811 304.326 80 308.5C82.1189 312.674 83.8243 316.435 84.2027 318C87 315 90 311 91.5 309C89.5 304.5 85.5 297.5 83.4459 294Z" fill="#2F80ED"/>
<path d="M96.6957 8C96.6957 8 81.6957 2.5 74.2088 0C72.6958 6 72.6958 9 73.6958 14.5C78.1957 15.5 85.2346 16.2597 96.1957 19C95.1957 13.5 96.6957 8 96.6957 8Z" fill="#219653"/>
<path d="M15.0895 167L9 169.664C10.5224 175.754 14.4552 179.813 16.2313 181.082C16.7388 180.955 18.7432 180.169 22.7014 178.037C19.6566 176.515 16.3582 170.045 15.0895 167Z" fill="#F9423E"/>
<path d="M284.806 277L281 280.425C281.913 285.906 286.963 290.321 289.373 291.843C289.754 291.589 291.124 290.245 293.56 286.895C289.297 285.373 285.948 279.664 284.806 277Z" fill="#F9423E"/>
<path d="M223.276 315L213 316.522C213 325.657 216.806 329.97 218.709 330.985C219.216 331.112 221.221 331.289 225.179 330.985C222.134 326.722 222.642 318.552 223.276 315Z" fill="#2F80ED"/>
<path d="M331.709 148.791L326 144.224C335.743 139.048 336.91 131.918 336.276 129C337.545 129.507 340.919 130.979 344.269 132.806C345.182 140.722 336.276 146.761 331.709 148.791Z" fill="#6C98FE"/>
<path d="M270.038 49L261 48.3333C266.164 41.9333 265.734 30.1111 264.873 25H275.848C276.881 35.6667 272.405 45.4444 270.038 49Z" fill="#F9423E"/>
<path d="M169.22 31L166 27.5263C170.683 25.2526 173.415 20.8947 174.195 19C174.683 19.3158 176.127 20.3263 178 21.8421C176.829 25.6316 171.659 29.5263 169.22 31Z" fill="#477DFE"/>
<defs>
<clipPath id="clip0">
<rect width="237.007" height="209.063" fill="white" transform="translate(61 109.203)"/>
</clipPath>
</defs>
</svg>
