<svg width="280" height="24" viewBox="0 0 280 24" fill="none" xmlns="http://www.w3.org/2000/svg">
<mask id="mask0" mask-type="alpha" maskUnits="userSpaceOnUse" x="0" y="0" width="280" height="24">
<rect width="280" height="24" fill="#FFC033"/>
</mask>
<g mask="url(#mask0)">
<path d="M2.59805 -72.7617L4.5299 -72.2441L-22.6484 29.1866L-24.5802 28.669L2.59805 -72.7617Z" fill="#DB9D25"/>
<path d="M6.46176 -71.7264L8.39361 -71.2088L-18.7847 30.2219L-20.7165 29.7043L6.46176 -71.7264Z" fill="#DB9D25"/>
<path d="M10.3255 -70.6912L12.2573 -70.1735L-14.921 31.2572L-16.8528 30.7395L10.3255 -70.6912Z" fill="#DB9D25"/>
<path d="M14.1892 -69.6559L16.121 -69.1383L-11.0573 32.2925L-12.9891 31.7748L14.1892 -69.6559Z" fill="#DB9D25"/>
<path d="M18.0529 -68.6206L19.9847 -68.103L-7.19356 33.3277L-9.12541 32.8101L18.0529 -68.6206Z" fill="#DB9D25"/>
<path d="M21.9166 -67.5853L23.8484 -67.0677L-3.32986 34.363L-5.26171 33.8454L21.9166 -67.5853Z" fill="#DB9D25"/>
<path d="M25.7803 -66.5501L27.7121 -66.0324L0.533846 35.3983L-1.39801 34.8807L25.7803 -66.5501Z" fill="#DB9D25"/>
<path d="M29.644 -65.5148L31.5758 -64.9971L4.39755 36.4336L2.4657 35.9159L29.644 -65.5148Z" fill="#DB9D25"/>
<path d="M33.5077 -64.4795L35.4395 -63.9619L8.26125 37.4688L6.3294 36.9512L33.5077 -64.4795Z" fill="#DB9D25"/>
<path d="M37.3714 -63.4442L39.3032 -62.9266L12.125 38.5041L10.1931 37.9865L37.3714 -63.4442Z" fill="#DB9D25"/>
<path d="M41.2351 -62.409L43.1669 -61.8913L15.9887 39.5394L14.0568 39.0218L41.2351 -62.409Z" fill="#DB9D25"/>
<path d="M45.0988 -61.3737L47.0306 -60.856L19.8524 40.5747L17.9205 40.057L45.0988 -61.3737Z" fill="#DB9D25"/>
<path d="M48.9625 -60.3384L50.8943 -59.8208L23.7161 41.6099L21.7842 41.0923L48.9625 -60.3384Z" fill="#DB9D25"/>
<path d="M52.8262 -59.3031L54.758 -58.7855L27.5798 42.6452L25.6479 42.1276L52.8262 -59.3031Z" fill="#DB9D25"/>
<path d="M56.6899 -58.2679L58.6218 -57.7502L31.4435 43.6805L29.5116 43.1629L56.6899 -58.2679Z" fill="#DB9D25"/>
<path d="M60.5536 -57.2326L62.4855 -56.7149L35.3072 44.7158L33.3753 44.1981L60.5536 -57.2326Z" fill="#DB9D25"/>
<path d="M64.4173 -56.1973L66.3492 -55.6797L39.1709 45.7511L37.239 45.2334L64.4173 -56.1973Z" fill="#DB9D25"/>
<path d="M68.281 -55.162L70.2129 -54.6444L43.0346 46.7863L41.1027 46.2687L68.281 -55.162Z" fill="#DB9D25"/>
<path d="M72.1447 -54.1267L74.0766 -53.6091L46.8983 47.8216L44.9664 47.304L72.1447 -54.1267Z" fill="#DB9D25"/>
<path d="M76.0084 -53.0915L77.9403 -52.5738L50.762 48.8569L48.8301 48.3392L76.0084 -53.0915Z" fill="#DB9D25"/>
<path d="M79.8721 -52.0562L81.804 -51.5386L54.6257 49.8922L52.6938 49.3745L79.8721 -52.0562Z" fill="#DB9D25"/>
<path d="M83.7358 -51.0209L85.6677 -50.5033L58.4894 50.9274L56.5575 50.4098L83.7358 -51.0209Z" fill="#DB9D25"/>
<path d="M87.5995 -49.9856L89.5314 -49.468L62.3531 51.9627L60.4212 51.4451L87.5995 -49.9856Z" fill="#DB9D25"/>
<path d="M91.4632 -48.9504L93.3951 -48.4327L66.2168 52.998L64.2849 52.4803L91.4632 -48.9504Z" fill="#DB9D25"/>
<path d="M95.3269 -47.9151L97.2588 -47.3975L70.0805 54.0333L68.1487 53.5156L95.3269 -47.9151Z" fill="#DB9D25"/>
<path d="M99.1906 -46.8798L101.122 -46.3622L73.9442 55.0685L72.0124 54.5509L99.1906 -46.8798Z" fill="#DB9D25"/>
<path d="M103.054 -45.8445L104.986 -45.3269L77.8079 56.1038L75.8761 55.5862L103.054 -45.8445Z" fill="#DB9D25"/>
<path d="M106.918 -44.8093L108.85 -44.2916L81.6716 57.1391L79.7398 56.6215L106.918 -44.8093Z" fill="#DB9D25"/>
<path d="M110.782 -43.774L112.714 -43.2563L85.5353 58.1744L83.6035 57.6567L110.782 -43.774Z" fill="#DB9D25"/>
<path d="M114.645 -42.7387L116.577 -42.2211L89.399 59.2096L87.4672 58.692L114.645 -42.7387Z" fill="#DB9D25"/>
<path d="M118.509 -41.7034L120.441 -41.1858L93.2627 60.2449L91.3309 59.7273L118.509 -41.7034Z" fill="#DB9D25"/>
<path d="M122.373 -40.6682L124.305 -40.1505L97.1264 61.2802L95.1946 60.7626L122.373 -40.6682Z" fill="#DB9D25"/>
<path d="M126.237 -39.6329L128.168 -39.1152L100.99 62.3155L99.0583 61.7978L126.237 -39.6329Z" fill="#DB9D25"/>
<path d="M130.1 -38.5976L132.032 -38.08L104.854 63.3507L102.922 62.8331L130.1 -38.5976Z" fill="#DB9D25"/>
<path d="M133.964 -37.5623L135.896 -37.0447L108.718 64.386L106.786 63.8684L133.964 -37.5623Z" fill="#DB9D25"/>
<path d="M137.828 -36.5271L139.76 -36.0094L112.581 65.4213L110.649 64.9037L137.828 -36.5271Z" fill="#DB9D25"/>
<path d="M141.691 -35.4918L143.623 -34.9741L116.445 66.4566L114.513 65.9389L141.691 -35.4918Z" fill="#DB9D25"/>
<path d="M145.555 -34.4565L147.487 -33.9389L120.309 67.4919L118.377 66.9742L145.555 -34.4565Z" fill="#DB9D25"/>
<path d="M149.419 -33.4212L151.351 -32.9036L124.172 68.5271L122.24 68.0095L149.419 -33.4212Z" fill="#DB9D25"/>
<path d="M153.282 -32.3859L155.214 -31.8683L128.036 69.5624L126.104 69.0448L153.282 -32.3859Z" fill="#DB9D25"/>
<path d="M157.146 -31.3507L159.078 -30.833L131.9 70.5977L129.968 70.08L157.146 -31.3507Z" fill="#DB9D25"/>
<path d="M161.01 -30.3154L162.942 -29.7978L135.763 71.633L133.832 71.1153L161.01 -30.3154Z" fill="#DB9D25"/>
<path d="M164.874 -29.2801L166.805 -28.7625L139.627 72.6682L137.695 72.1506L164.874 -29.2801Z" fill="#DB9D25"/>
<path d="M168.737 -28.2448L170.669 -27.7272L143.491 73.7035L141.559 73.1859L168.737 -28.2448Z" fill="#DB9D25"/>
<path d="M172.601 -27.2096L174.533 -26.6919L147.355 74.7388L145.423 74.2211L172.601 -27.2096Z" fill="#DB9D25"/>
<path d="M176.465 -26.1743L178.397 -25.6567L151.218 75.7741L149.286 75.2564L176.465 -26.1743Z" fill="#DB9D25"/>
<path d="M180.328 -25.139L182.26 -24.6214L155.082 76.8093L153.15 76.2917L180.328 -25.139Z" fill="#DB9D25"/>
<path d="M184.192 -24.1037L186.124 -23.5861L158.946 77.8446L157.014 77.327L184.192 -24.1037Z" fill="#DB9D25"/>
<path d="M188.056 -23.0685L189.988 -22.5508L162.809 78.8799L160.878 78.3623L188.056 -23.0685Z" fill="#DB9D25"/>
<path d="M191.92 -22.0332L193.851 -21.5155L166.673 79.9152L164.741 79.3975L191.92 -22.0332Z" fill="#DB9D25"/>
<path d="M195.783 -20.9979L197.715 -20.4803L170.537 80.9504L168.605 80.4328L195.783 -20.9979Z" fill="#DB9D25"/>
<path d="M199.647 -19.9626L201.579 -19.445L174.4 81.9857L172.469 81.4681L199.647 -19.9626Z" fill="#DB9D25"/>
<path d="M203.511 -18.9274L205.442 -18.4097L178.264 83.021L176.332 82.5034L203.511 -18.9274Z" fill="#DB9D25"/>
<path d="M207.374 -17.8921L209.306 -17.3744L182.128 84.0563L180.196 83.5386L207.374 -17.8921Z" fill="#DB9D25"/>
<path d="M211.238 -16.8568L213.17 -16.3392L185.992 85.0915L184.06 84.5739L211.238 -16.8568Z" fill="#DB9D25"/>
<path d="M215.102 -15.8215L217.034 -15.3039L189.855 86.1268L187.923 85.6092L215.102 -15.8215Z" fill="#DB9D25"/>
<path d="M218.965 -14.7863L220.897 -14.2686L193.719 87.1621L191.787 86.6445L218.965 -14.7863Z" fill="#DB9D25"/>
<path d="M222.829 -13.751L224.761 -13.2333L197.583 88.1974L195.651 87.6797L222.829 -13.751Z" fill="#DB9D25"/>
<path d="M226.693 -12.7157L228.625 -12.1981L201.446 89.2327L199.515 88.715L226.693 -12.7157Z" fill="#DB9D25"/>
<path d="M230.557 -11.6804L232.488 -11.1628L205.31 90.2679L203.378 89.7503L230.557 -11.6804Z" fill="#DB9D25"/>
<path d="M234.42 -10.6451L236.352 -10.1275L209.174 91.3032L207.242 90.7856L234.42 -10.6451Z" fill="#DB9D25"/>
<path d="M238.284 -9.60987L240.216 -9.09223L213.038 92.3385L211.106 91.8208L238.284 -9.60987Z" fill="#DB9D25"/>
<path d="M242.148 -8.5746L244.08 -8.05696L216.901 93.3738L214.969 92.8561L242.148 -8.5746Z" fill="#DB9D25"/>
<path d="M246.011 -7.53932L247.943 -7.02168L220.765 94.409L218.833 93.8914L246.011 -7.53932Z" fill="#DB9D25"/>
<path d="M249.875 -6.50404L251.807 -5.98641L224.629 95.4443L222.697 94.9267L249.875 -6.50404Z" fill="#DB9D25"/>
<path d="M253.739 -5.46877L255.671 -4.95113L228.492 96.4796L226.56 95.9619L253.739 -5.46877Z" fill="#DB9D25"/>
<path d="M257.602 -4.43349L259.534 -3.91585L232.356 97.5149L230.424 96.9972L257.602 -4.43349Z" fill="#DB9D25"/>
<path d="M261.466 -3.39822L263.398 -2.88058L236.22 98.5501L234.288 98.0325L261.466 -3.39822Z" fill="#DB9D25"/>
<path d="M265.33 -2.36294L267.262 -1.8453L240.083 99.5854L238.152 99.0678L265.33 -2.36294Z" fill="#DB9D25"/>
<path d="M269.194 -1.32766L271.125 -0.810025L243.947 100.621L242.015 100.103L269.194 -1.32766Z" fill="#DB9D25"/>
<path d="M273.057 -0.292387L274.989 0.225252L247.811 101.656L245.879 101.138L273.057 -0.292387Z" fill="#DB9D25"/>
<path d="M276.921 0.74289L278.853 1.26053L251.675 102.691L249.743 102.174L276.921 0.74289Z" fill="#DB9D25"/>
<path d="M280.785 1.77817L282.717 2.2958L255.538 103.727L253.606 103.209L280.785 1.77817Z" fill="#DB9D25"/>
<path d="M284.648 2.81344L286.58 3.33108L259.402 104.762L257.47 104.244L284.648 2.81344Z" fill="#DB9D25"/>
</g>
</svg>
