<svg width="280" height="57" viewBox="0 0 280 57" fill="none" xmlns="http://www.w3.org/2000/svg">
<mask id="mask0" mask-type="alpha" maskUnits="userSpaceOnUse" x="0" y="0" width="280" height="57">
<rect width="280" height="56.9584" fill="#FFC033"/>
</mask>
<g mask="url(#mask0)">
<path d="M12.498 -79.0383L14.4299 -78.5118L-22.6482 62.2337L-24.58 61.7072L12.498 -79.0383Z" fill="#FFC033"/>
<path d="M16.3618 -77.9853L18.2936 -77.4588L-18.7845 63.2867L-20.7163 62.7602L16.3618 -77.9853Z" fill="#FFC033"/>
<path d="M20.2255 -76.9323L22.1573 -76.4058L-14.9208 64.3397L-16.8526 63.8132L20.2255 -76.9323Z" fill="#FFC033"/>
<path d="M24.0892 -75.8793L26.021 -75.3528L-11.0571 65.3927L-12.9889 64.8662L24.0892 -75.8793Z" fill="#FFC033"/>
<path d="M27.9529 -74.8264L29.8847 -74.2999L-7.19336 66.4457L-9.12521 65.9192L27.9529 -74.8264Z" fill="#FFC033"/>
<path d="M31.8166 -73.7734L33.7484 -73.2469L-3.32966 67.4987L-5.26151 66.9722L31.8166 -73.7734Z" fill="#FFC033"/>
<path d="M35.6803 -72.7204L37.6121 -72.1939L0.534044 68.5517L-1.39781 68.0252L35.6803 -72.7204Z" fill="#FFC033"/>
<path d="M39.544 -71.6674L41.4758 -71.1409L4.39775 69.6047L2.46589 69.0782L39.544 -71.6674Z" fill="#FFC033"/>
<path d="M43.4077 -70.6144L45.3395 -70.0879L8.26145 70.6577L6.3296 70.1312L43.4077 -70.6144Z" fill="#FFC033"/>
<path d="M47.2714 -69.5614L49.2032 -69.0349L12.1252 71.7107L10.1933 71.1842L47.2714 -69.5614Z" fill="#FFC033"/>
<path d="M51.1351 -68.5084L53.0669 -67.9819L15.9889 72.7637L14.057 72.2372L51.1351 -68.5084Z" fill="#FFC033"/>
<path d="M54.9988 -67.4554L56.9306 -66.9289L19.8526 73.8167L17.9207 73.2902L54.9988 -67.4554Z" fill="#FFC033"/>
<path d="M58.8625 -66.4024L60.7943 -65.8759L23.7163 74.8697L21.7844 74.3432L58.8625 -66.4024Z" fill="#FFC033"/>
<path d="M62.7262 -65.3494L64.658 -64.8229L27.58 75.9227L25.6481 75.3962L62.7262 -65.3494Z" fill="#FFC033"/>
<path d="M66.5899 -64.2964L68.5217 -63.7699L31.4437 76.9757L29.5118 76.4492L66.5899 -64.2964Z" fill="#FFC033"/>
<path d="M70.4536 -63.2434L72.3854 -62.7169L35.3074 78.0286L33.3755 77.5021L70.4536 -63.2434Z" fill="#FFC033"/>
<path d="M74.3173 -62.1904L76.2492 -61.6639L39.1711 79.0816L37.2392 78.5551L74.3173 -62.1904Z" fill="#FFC033"/>
<path d="M78.181 -61.1374L80.1129 -60.6109L43.0348 80.1346L41.1029 79.6081L78.181 -61.1374Z" fill="#FFC033"/>
<path d="M82.0447 -60.0844L83.9766 -59.5579L46.8985 81.1876L44.9666 80.6611L82.0447 -60.0844Z" fill="#FFC033"/>
<path d="M85.9084 -59.0314L87.8403 -58.5049L50.7622 82.2406L48.8303 81.7141L85.9084 -59.0314Z" fill="#FFC033"/>
<path d="M89.7721 -57.9784L91.704 -57.4519L54.6259 83.2936L52.694 82.7671L89.7721 -57.9784Z" fill="#FFC033"/>
<path d="M93.6358 -56.9254L95.5677 -56.3989L58.4896 84.3466L56.5577 83.8201L93.6358 -56.9254Z" fill="#FFC033"/>
<path d="M97.4995 -55.8724L99.4314 -55.3459L62.3533 85.3996L60.4214 84.8731L97.4995 -55.8724Z" fill="#FFC033"/>
<path d="M101.363 -54.8194L103.295 -54.293L66.217 86.4526L64.2851 85.9261L101.363 -54.8194Z" fill="#FFC033"/>
<path d="M105.227 -53.7665L107.159 -53.24L70.0807 87.5056L68.1488 86.9791L105.227 -53.7665Z" fill="#FFC033"/>
<path d="M109.091 -52.7135L111.022 -52.187L73.9444 88.5586L72.0126 88.0321L109.091 -52.7135Z" fill="#FFC033"/>
<path d="M112.954 -51.6605L114.886 -51.134L77.8081 89.6116L75.8763 89.0851L112.954 -51.6605Z" fill="#FFC033"/>
<path d="M116.818 -50.6075L118.75 -50.081L81.6718 90.6646L79.74 90.1381L116.818 -50.6075Z" fill="#FFC033"/>
<path d="M120.682 -49.5545L122.614 -49.028L85.5355 91.7176L83.6037 91.1911L120.682 -49.5545Z" fill="#FFC033"/>
<path d="M124.545 -48.5015L126.477 -47.975L89.3992 92.7706L87.4674 92.2441L124.545 -48.5015Z" fill="#FFC033"/>
<path d="M128.409 -47.4485L130.341 -46.922L93.2629 93.8236L91.3311 93.2971L128.409 -47.4485Z" fill="#FFC033"/>
<path d="M132.273 -46.3955L134.205 -45.869L97.1266 94.8766L95.1948 94.3501L132.273 -46.3955Z" fill="#FFC033"/>
<path d="M136.137 -45.3425L138.068 -44.816L100.99 95.9296L99.0585 95.4031L136.137 -45.3425Z" fill="#FFC033"/>
<path d="M140 -44.2895L141.932 -43.763L104.854 96.9826L102.922 96.4561L140 -44.2895Z" fill="#FFC033"/>
<path d="M143.864 -43.2365L145.796 -42.71L108.718 98.0355L106.786 97.5091L143.864 -43.2365Z" fill="#FFC033"/>
<path d="M147.728 -42.1835L149.66 -41.657L112.581 99.0885L110.65 98.562L147.728 -42.1835Z" fill="#FFC033"/>
<path d="M151.591 -41.1305L153.523 -40.604L116.445 100.142L114.513 99.615L151.591 -41.1305Z" fill="#FFC033"/>
<path d="M155.455 -40.0775L157.387 -39.551L120.309 101.195L118.377 100.668L155.455 -40.0775Z" fill="#FFC033"/>
<path d="M159.319 -39.0245L161.251 -38.498L124.173 102.248L122.241 101.721L159.319 -39.0245Z" fill="#FFC033"/>
<path d="M163.182 -37.9715L165.114 -37.445L128.036 103.301L126.104 102.774L163.182 -37.9715Z" fill="#FFC033"/>
<path d="M167.046 -36.9185L168.978 -36.392L131.9 104.354L129.968 103.827L167.046 -36.9185Z" fill="#FFC033"/>
<path d="M170.91 -35.8655L172.842 -35.339L135.764 105.407L133.832 104.88L170.91 -35.8655Z" fill="#FFC033"/>
<path d="M174.774 -34.8125L176.705 -34.286L139.627 106.46L137.696 105.933L174.774 -34.8125Z" fill="#FFC033"/>
<path d="M178.637 -33.7596L180.569 -33.2331L143.491 107.513L141.559 106.986L178.637 -33.7596Z" fill="#FFC033"/>
<path d="M182.501 -32.7066L184.433 -32.1801L147.355 108.565L145.423 108.039L182.501 -32.7066Z" fill="#FFC033"/>
<path d="M186.365 -31.6536L188.297 -31.1271L151.218 109.618L149.287 109.092L186.365 -31.6536Z" fill="#FFC033"/>
<path d="M190.228 -30.6006L192.16 -30.0741L155.082 110.671L153.15 110.145L190.228 -30.6006Z" fill="#FFC033"/>
<path d="M194.092 -29.5476L196.024 -29.0211L158.946 111.724L157.014 111.198L194.092 -29.5476Z" fill="#FFC033"/>
<path d="M197.956 -28.4946L199.888 -27.9681L162.81 112.777L160.878 112.251L197.956 -28.4946Z" fill="#FFC033"/>
<path d="M201.82 -27.4416L203.751 -26.9151L166.673 113.83L164.741 113.304L201.82 -27.4416Z" fill="#FFC033"/>
<path d="M205.683 -26.3886L207.615 -25.8621L170.537 114.883L168.605 114.357L205.683 -26.3886Z" fill="#FFC033"/>
<path d="M209.547 -25.3356L211.479 -24.8091L174.401 115.936L172.469 115.41L209.547 -25.3356Z" fill="#FFC033"/>
<path d="M213.411 -24.2826L215.342 -23.7561L178.264 116.989L176.333 116.463L213.411 -24.2826Z" fill="#FFC033"/>
<path d="M217.274 -23.2296L219.206 -22.7031L182.128 118.042L180.196 117.516L217.274 -23.2296Z" fill="#FFC033"/>
<path d="M221.138 -22.1766L223.07 -21.6501L185.992 119.095L184.06 118.569L221.138 -22.1766Z" fill="#FFC033"/>
<path d="M225.002 -21.1236L226.934 -20.5971L189.855 120.148L187.924 119.622L225.002 -21.1236Z" fill="#FFC033"/>
<path d="M228.865 -20.0706L230.797 -19.5441L193.719 121.201L191.787 120.675L228.865 -20.0706Z" fill="#FFC033"/>
<path d="M232.729 -19.0176L234.661 -18.4911L197.583 122.254L195.651 121.728L232.729 -19.0176Z" fill="#FFC033"/>
<path d="M236.593 -17.9646L238.525 -17.4381L201.447 123.307L199.515 122.781L236.593 -17.9646Z" fill="#FFC033"/>
<path d="M240.457 -16.9116L242.388 -16.3851L205.31 124.36L203.378 123.834L240.457 -16.9116Z" fill="#FFC033"/>
<path d="M244.32 -15.8586L246.252 -15.3321L209.174 125.413L207.242 124.887L244.32 -15.8586Z" fill="#FFC033"/>
<path d="M248.184 -14.8056L250.116 -14.2791L213.038 126.466L211.106 125.94L248.184 -14.8056Z" fill="#FFC033"/>
<path d="M252.048 -13.7527L253.98 -13.2262L216.901 127.519L214.97 126.993L252.048 -13.7527Z" fill="#FFC033"/>
<path d="M255.911 -12.6997L257.843 -12.1732L220.765 128.572L218.833 128.046L255.911 -12.6997Z" fill="#FFC033"/>
<path d="M259.775 -11.6467L261.707 -11.1202L224.629 129.625L222.697 129.099L259.775 -11.6467Z" fill="#FFC033"/>
<path d="M263.639 -10.5937L265.571 -10.0672L228.493 130.678L226.561 130.152L263.639 -10.5937Z" fill="#FFC033"/>
<path d="M267.502 -9.54067L269.434 -9.01417L232.356 131.731L230.424 131.205L267.502 -9.54067Z" fill="#FFC033"/>
<path d="M271.366 -8.48768L273.298 -7.96118L236.22 132.784L234.288 132.258L271.366 -8.48768Z" fill="#FFC033"/>
<path d="M275.23 -7.43468L277.162 -6.90818L240.084 133.837L238.152 133.311L275.23 -7.43468Z" fill="#FFC033"/>
<path d="M279.094 -6.38169L281.025 -5.85519L243.947 134.89L242.015 134.364L279.094 -6.38169Z" fill="#FFC033"/>
<path d="M282.957 -5.32869L284.889 -4.80219L247.811 135.943L245.879 135.417L282.957 -5.32869Z" fill="#FFC033"/>
<path d="M286.821 -4.2757L288.753 -3.7492L251.675 136.996L249.743 136.47L286.821 -4.2757Z" fill="#FFC033"/>
<path d="M290.685 -3.2227L292.617 -2.69621L255.538 138.049L253.607 137.523L290.685 -3.2227Z" fill="#FFC033"/>
<path d="M294.548 -2.16971L296.48 -1.64321L259.402 139.102L257.47 138.576L294.548 -2.16971Z" fill="#FFC033"/>
</g>
</svg>
