<svg width="280" height="24" viewBox="0 0 280 24" fill="none" xmlns="http://www.w3.org/2000/svg">
<mask id="mask0" mask-type="alpha" maskUnits="userSpaceOnUse" x="0" y="0" width="280" height="24">
<rect width="280" height="24" fill="#FFC033"/>
</mask>
<g mask="url(#mask0)">
<path d="M9.17822 -82L11.1101 -81.4824L-16.0682 19.9484L-18.0001 19.4307L9.17822 -82Z" fill="#DB9D25"/>
<path d="M13.0419 -80.9647L14.9738 -80.4471L-12.2045 20.9836L-14.1364 20.466L13.0419 -80.9647Z" fill="#DB9D25"/>
<path d="M16.9056 -79.9294L18.8375 -79.4118L-8.3408 22.0189L-10.2726 21.5013L16.9056 -79.9294Z" fill="#DB9D25"/>
<path d="M20.7693 -78.8942L22.7012 -78.3765L-4.47709 23.0542L-6.40895 22.5365L20.7693 -78.8942Z" fill="#DB9D25"/>
<path d="M24.633 -77.8589L26.5649 -77.3413L-0.613391 24.0895L-2.54524 23.5718L24.633 -77.8589Z" fill="#DB9D25"/>
<path d="M28.4967 -76.8236L30.4286 -76.306L3.25031 25.1247L1.31846 24.6071L28.4967 -76.8236Z" fill="#DB9D25"/>
<path d="M32.3604 -75.7883L34.2923 -75.2707L7.11402 26.16L5.18216 25.6424L32.3604 -75.7883Z" fill="#DB9D25"/>
<path d="M36.2241 -74.7531L38.156 -74.2354L10.9777 27.1953L9.04587 26.6776L36.2241 -74.7531Z" fill="#DB9D25"/>
<path d="M40.0878 -73.7178L42.0197 -73.2002L14.8414 28.2306L12.9096 27.7129L40.0878 -73.7178Z" fill="#DB9D25"/>
<path d="M43.9516 -72.6825L45.8834 -72.1649L18.7051 29.2658L16.7733 28.7482L43.9516 -72.6825Z" fill="#DB9D25"/>
<path d="M47.8153 -71.6472L49.7471 -71.1296L22.5688 30.3011L20.637 29.7835L47.8153 -71.6472Z" fill="#DB9D25"/>
<path d="M51.679 -70.612L53.6108 -70.0943L26.4325 31.3364L24.5007 30.8188L51.679 -70.612Z" fill="#DB9D25"/>
<path d="M55.5427 -69.5767L57.4745 -69.059L30.2962 32.3717L28.3644 31.854L55.5427 -69.5767Z" fill="#DB9D25"/>
<path d="M59.4064 -68.5414L61.3382 -68.0238L34.1599 33.4069L32.2281 32.8893L59.4064 -68.5414Z" fill="#DB9D25"/>
<path d="M63.2701 -67.5061L65.2019 -66.9885L38.0236 34.4422L36.0918 33.9246L63.2701 -67.5061Z" fill="#DB9D25"/>
<path d="M67.1338 -66.4709L69.0656 -65.9532L41.8873 35.4775L39.9555 34.9599L67.1338 -66.4709Z" fill="#DB9D25"/>
<path d="M70.9975 -65.4356L72.9293 -64.9179L45.751 36.5128L43.8192 35.9951L70.9975 -65.4356Z" fill="#DB9D25"/>
<path d="M74.8612 -64.4003L76.793 -63.8827L49.6148 37.548L47.6829 37.0304L74.8612 -64.4003Z" fill="#DB9D25"/>
<path d="M78.7249 -63.365L80.6567 -62.8474L53.4785 38.5833L51.5466 38.0657L78.7249 -63.365Z" fill="#DB9D25"/>
<path d="M82.5886 -62.3298L84.5204 -61.8121L57.3422 39.6186L55.4103 39.101L82.5886 -62.3298Z" fill="#DB9D25"/>
<path d="M86.4523 -61.2945L88.3841 -60.7768L61.2059 40.6539L59.274 40.1362L86.4523 -61.2945Z" fill="#DB9D25"/>
<path d="M90.316 -60.2592L92.2478 -59.7416L65.0696 41.6892L63.1377 41.1715L90.316 -60.2592Z" fill="#DB9D25"/>
<path d="M94.1797 -59.2239L96.1115 -58.7063L68.9333 42.7244L67.0014 42.2068L94.1797 -59.2239Z" fill="#DB9D25"/>
<path d="M98.0434 -58.1886L99.9752 -57.671L72.797 43.7597L70.8651 43.2421L98.0434 -58.1886Z" fill="#DB9D25"/>
<path d="M101.907 -57.1534L103.839 -56.6357L76.6607 44.795L74.7288 44.2773L101.907 -57.1534Z" fill="#DB9D25"/>
<path d="M105.771 -56.1181L107.703 -55.6005L80.5244 45.8303L78.5925 45.3126L105.771 -56.1181Z" fill="#DB9D25"/>
<path d="M109.635 -55.0828L111.566 -54.5652L84.3881 46.8655L82.4562 46.3479L109.635 -55.0828Z" fill="#DB9D25"/>
<path d="M113.498 -54.0475L115.43 -53.5299L88.2518 47.9008L86.3199 47.3832L113.498 -54.0475Z" fill="#DB9D25"/>
<path d="M117.362 -53.0123L119.294 -52.4946L92.1155 48.9361L90.1836 48.4184L117.362 -53.0123Z" fill="#DB9D25"/>
<path d="M121.226 -51.977L123.157 -51.4594L95.9792 49.9714L94.0473 49.4537L121.226 -51.977Z" fill="#DB9D25"/>
<path d="M125.089 -50.9417L127.021 -50.4241L99.8429 51.0066L97.911 50.489L125.089 -50.9417Z" fill="#DB9D25"/>
<path d="M128.953 -49.9064L130.885 -49.3888L103.707 52.0419L101.775 51.5243L128.953 -49.9064Z" fill="#DB9D25"/>
<path d="M132.817 -48.8712L134.749 -48.3535L107.57 53.0772L105.638 52.5596L132.817 -48.8712Z" fill="#DB9D25"/>
<path d="M136.68 -47.8359L138.612 -47.3182L111.434 54.1125L109.502 53.5948L136.68 -47.8359Z" fill="#DB9D25"/>
<path d="M140.544 -46.8006L142.476 -46.283L115.298 55.1477L113.366 54.6301L140.544 -46.8006Z" fill="#DB9D25"/>
<path d="M144.408 -45.7653L146.34 -45.2477L119.161 56.183L117.23 55.6654L144.408 -45.7653Z" fill="#DB9D25"/>
<path d="M148.272 -44.7301L150.203 -44.2124L123.025 57.2183L121.093 56.7007L148.272 -44.7301Z" fill="#DB9D25"/>
<path d="M152.135 -43.6948L154.067 -43.1771L126.889 58.2536L124.957 57.7359L152.135 -43.6948Z" fill="#DB9D25"/>
<path d="M155.999 -42.6595L157.931 -42.1419L130.753 59.2888L128.821 58.7712L155.999 -42.6595Z" fill="#DB9D25"/>
<path d="M159.863 -41.6242L161.795 -41.1066L134.616 60.3241L132.684 59.8065L159.863 -41.6242Z" fill="#DB9D25"/>
<path d="M163.726 -40.589L165.658 -40.0713L138.48 61.3594L136.548 60.8418L163.726 -40.589Z" fill="#DB9D25"/>
<path d="M167.59 -39.5537L169.522 -39.036L142.344 62.3947L140.412 61.877L167.59 -39.5537Z" fill="#DB9D25"/>
<path d="M171.454 -38.5184L173.386 -38.0008L146.207 63.43L144.275 62.9123L171.454 -38.5184Z" fill="#DB9D25"/>
<path d="M175.317 -37.4831L177.249 -36.9655L150.071 64.4652L148.139 63.9476L175.317 -37.4831Z" fill="#DB9D25"/>
<path d="M179.181 -36.4478L181.113 -35.9302L153.935 65.5005L152.003 64.9829L179.181 -36.4478Z" fill="#DB9D25"/>
<path d="M183.045 -35.4126L184.977 -34.8949L157.798 66.5358L155.867 66.0181L183.045 -35.4126Z" fill="#DB9D25"/>
<path d="M186.909 -34.3773L188.84 -33.8597L161.662 67.5711L159.73 67.0534L186.909 -34.3773Z" fill="#DB9D25"/>
<path d="M190.772 -33.342L192.704 -32.8244L165.526 68.6063L163.594 68.0887L190.772 -33.342Z" fill="#DB9D25"/>
<path d="M194.636 -32.3067L196.568 -31.7891L169.39 69.6416L167.458 69.124L194.636 -32.3067Z" fill="#DB9D25"/>
<path d="M198.5 -31.2715L200.432 -30.7538L173.253 70.6769L171.321 70.1592L198.5 -31.2715Z" fill="#DB9D25"/>
<path d="M202.363 -30.2362L204.295 -29.7186L177.117 71.7122L175.185 71.1945L202.363 -30.2362Z" fill="#DB9D25"/>
<path d="M206.227 -29.2009L208.159 -28.6833L180.981 72.7474L179.049 72.2298L206.227 -29.2009Z" fill="#DB9D25"/>
<path d="M210.091 -28.1656L212.023 -27.648L184.844 73.7827L182.913 73.2651L210.091 -28.1656Z" fill="#DB9D25"/>
<path d="M213.954 -27.1304L215.886 -26.6127L188.708 74.818L186.776 74.3004L213.954 -27.1304Z" fill="#DB9D25"/>
<path d="M217.818 -26.0951L219.75 -25.5774L192.572 75.8533L190.64 75.3356L217.818 -26.0951Z" fill="#DB9D25"/>
<path d="M221.682 -25.0598L223.614 -24.5422L196.435 76.8885L194.504 76.3709L221.682 -25.0598Z" fill="#DB9D25"/>
<path d="M225.546 -24.0245L227.477 -23.5069L200.299 77.9238L198.367 77.4062L225.546 -24.0245Z" fill="#DB9D25"/>
<path d="M229.409 -22.9893L231.341 -22.4716L204.163 78.9591L202.231 78.4415L229.409 -22.9893Z" fill="#DB9D25"/>
<path d="M233.273 -21.954L235.205 -21.4363L208.027 79.9944L206.095 79.4767L233.273 -21.954Z" fill="#DB9D25"/>
<path d="M237.137 -20.9187L239.069 -20.4011L211.89 81.0296L209.958 80.512L237.137 -20.9187Z" fill="#DB9D25"/>
<path d="M241 -19.8834L242.932 -19.3658L215.754 82.0649L213.822 81.5473L241 -19.8834Z" fill="#DB9D25"/>
<path d="M244.864 -18.8482L246.796 -18.3305L219.618 83.1002L217.686 82.5826L244.864 -18.8482Z" fill="#DB9D25"/>
<path d="M248.728 -17.8129L250.66 -17.2952L223.481 84.1355L221.55 83.6178L248.728 -17.8129Z" fill="#DB9D25"/>
<path d="M252.592 -16.7776L254.523 -16.26L227.345 85.1708L225.413 84.6531L252.592 -16.7776Z" fill="#DB9D25"/>
<path d="M256.455 -15.7423L258.387 -15.2247L231.209 86.206L229.277 85.6884L256.455 -15.7423Z" fill="#DB9D25"/>
<path d="M260.319 -14.707L262.251 -14.1894L235.073 87.2413L233.141 86.7237L260.319 -14.707Z" fill="#DB9D25"/>
<path d="M264.183 -13.6718L266.114 -13.1541L238.936 88.2766L237.004 87.7589L264.183 -13.6718Z" fill="#DB9D25"/>
<path d="M268.046 -12.6365L269.978 -12.1189L242.8 89.3119L240.868 88.7942L268.046 -12.6365Z" fill="#DB9D25"/>
<path d="M271.91 -11.6012L273.842 -11.0836L246.664 90.3471L244.732 89.8295L271.91 -11.6012Z" fill="#DB9D25"/>
<path d="M275.774 -10.5659L277.706 -10.0483L250.527 91.3824L248.595 90.8648L275.774 -10.5659Z" fill="#DB9D25"/>
<path d="M279.637 -9.53067L281.569 -9.01303L254.391 92.4177L252.459 91.9L279.637 -9.53067Z" fill="#DB9D25"/>
<path d="M283.501 -8.49539L285.433 -7.97775L258.255 93.453L256.323 92.9353L283.501 -8.49539Z" fill="#DB9D25"/>
<path d="M287.365 -7.46012L289.297 -6.94248L262.118 94.4882L260.187 93.9706L287.365 -7.46012Z" fill="#DB9D25"/>
<path d="M291.229 -6.42484L293.16 -5.9072L265.982 95.5235L264.05 95.0059L291.229 -6.42484Z" fill="#DB9D25"/>
</g>
</svg>
